<?xml version="1.0" encoding="UTF-8"?><svg xmlns="http://www.w3.org/2000/svg" xmlns:xlink="http://www.w3.org/1999/xlink" fill-opacity="1" color-rendering="auto" color-interpolation="auto" text-rendering="auto" stroke="black" stroke-linecap="square" width="656" stroke-miterlimit="10" shape-rendering="auto" stroke-opacity="1" fill="black" stroke-dasharray="none" font-weight="normal" stroke-width="1" height="146" font-family="'Dialog'" font-style="normal" stroke-linejoin="miter" font-size="12px" stroke-dashoffset="0" image-rendering="auto">
  <!--Generated by ySVG 2.5-->
  <defs id="genericDefs"/>
  <g>
    <defs id="defs1">
      <clipPath clipPathUnits="userSpaceOnUse" id="clipPath1">
        <path d="M0 0 L656 0 L656 146 L0 146 L0 0 Z"/>
      </clipPath>
      <clipPath clipPathUnits="userSpaceOnUse" id="clipPath2">
        <path d="M233 147 L889 147 L889 293 L233 293 L233 147 Z"/>
      </clipPath>
    </defs>
    <g fill="white" text-rendering="geometricPrecision" shape-rendering="geometricPrecision" transform="translate(-233,-147)" stroke="white">
      <rect x="233" width="656" height="146" y="147" clip-path="url(#clipPath2)" stroke="none"/>
    </g>
    <g fill="rgb(255,204,0)" text-rendering="geometricPrecision" shape-rendering="geometricPrecision" transform="matrix(1,0,0,1,-233,-147)" stroke="rgb(255,204,0)">
      <rect x="338" width="167" height="30" y="162" clip-path="url(#clipPath2)" stroke="none"/>
    </g>
    <g text-rendering="geometricPrecision" stroke-miterlimit="1.45" shape-rendering="geometricPrecision" transform="matrix(1,0,0,1,-233,-147)" stroke-linecap="butt">
      <rect fill="none" x="338" width="167" height="30" y="162" clip-path="url(#clipPath2)"/>
      <text x="358.5" xml:space="preserve" y="181.1543" clip-path="url(#clipPath2)" font-family="sans-serif" stroke="none">Analizar (meta)datos</text>
    </g>
    <g fill="rgb(255,204,0)" text-rendering="geometricPrecision" shape-rendering="geometricPrecision" transform="matrix(1,0,0,1,-233,-147)" stroke="rgb(255,204,0)">
      <rect x="546" width="128" height="30" y="162" clip-path="url(#clipPath2)" stroke="none"/>
    </g>
    <g text-rendering="geometricPrecision" stroke-miterlimit="1.45" shape-rendering="geometricPrecision" transform="matrix(1,0,0,1,-233,-147)" stroke-linecap="butt">
      <rect fill="none" x="546" width="128" height="30" y="162" clip-path="url(#clipPath2)"/>
      <text x="562.4102" xml:space="preserve" y="181.1543" clip-path="url(#clipPath2)" font-family="sans-serif" stroke="none">Convertir a RDF</text>
      <rect x="570.5" y="248" clip-path="url(#clipPath2)" fill="none" width="79" stroke-dasharray="6,2" rx="4" ry="4" height="30"/>
      <text x="577.835" xml:space="preserve" y="267.1543" clip-path="url(#clipPath2)" font-family="sans-serif" stroke="none">Ontologías</text>
    </g>
    <g fill="rgb(255,204,0)" text-rendering="geometricPrecision" shape-rendering="geometricPrecision" transform="matrix(1,0,0,1,-233,-147)" stroke="rgb(255,204,0)">
      <rect x="715" width="59" height="30" y="162" clip-path="url(#clipPath2)" stroke="none"/>
    </g>
    <g text-rendering="geometricPrecision" stroke-miterlimit="1.45" shape-rendering="geometricPrecision" transform="matrix(1,0,0,1,-233,-147)" stroke-linecap="butt">
      <rect fill="none" x="715" width="59" height="30" y="162" clip-path="url(#clipPath2)"/>
      <text x="722.2695" xml:space="preserve" y="181.1543" clip-path="url(#clipPath2)" font-family="sans-serif" stroke="none">Enlazar</text>
    </g>
    <g fill="rgb(255,204,0)" text-rendering="geometricPrecision" shape-rendering="geometricPrecision" transform="matrix(1,0,0,1,-233,-147)" stroke="rgb(255,204,0)">
      <rect x="815" width="59" height="30" y="162" clip-path="url(#clipPath2)" stroke="none"/>
    </g>
    <g text-rendering="geometricPrecision" stroke-miterlimit="1.45" shape-rendering="geometricPrecision" transform="matrix(1,0,0,1,-233,-147)" stroke-linecap="butt">
      <rect fill="none" x="815" width="59" height="30" y="162" clip-path="url(#clipPath2)"/>
      <text x="820.4941" xml:space="preserve" y="181.1543" clip-path="url(#clipPath2)" font-family="sans-serif" stroke="none">Publicar</text>
      <rect x="248" y="162" clip-path="url(#clipPath2)" fill="none" width="49" stroke-dasharray="6,2" rx="4" ry="4" height="30"/>
      <text x="255.0537" xml:space="preserve" y="181.1543" clip-path="url(#clipPath2)" font-family="sans-serif" stroke="none">Datos</text>
      <path fill="none" d="M505 177 L538 177" clip-path="url(#clipPath2)"/>
      <path d="M546 177 L534 172 L537 177 L534 182 Z" clip-path="url(#clipPath2)" stroke="none"/>
      <path fill="none" d="M610 248.0088 L610 200" clip-path="url(#clipPath2)"/>
      <path d="M610 192 L605 204 L610 201 L615 204 Z" clip-path="url(#clipPath2)" stroke="none"/>
      <path fill="none" d="M674 177 L707 177" clip-path="url(#clipPath2)"/>
      <path d="M715 177 L703 172 L706 177 L703 182 Z" clip-path="url(#clipPath2)" stroke="none"/>
      <path fill="none" d="M774 177 L807 177" clip-path="url(#clipPath2)"/>
      <path d="M815 177 L803 172 L806 177 L803 182 Z" clip-path="url(#clipPath2)" stroke="none"/>
      <path fill="none" d="M296.9817 177 L330 177" clip-path="url(#clipPath2)"/>
      <path d="M338 177 L326 172 L329 177 L326 182 Z" clip-path="url(#clipPath2)" stroke="none"/>
    </g>
  </g>
</svg>
