<?xml version="1.0" encoding="UTF-8"?><svg xmlns="http://www.w3.org/2000/svg" xmlns:xlink="http://www.w3.org/1999/xlink" fill-opacity="1" color-rendering="auto" color-interpolation="auto" text-rendering="auto" stroke="black" stroke-linecap="square" width="818" stroke-miterlimit="10" shape-rendering="auto" stroke-opacity="1" fill="black" stroke-dasharray="none" font-weight="normal" stroke-width="1" height="410" font-family="'Dialog'" font-style="normal" stroke-linejoin="miter" font-size="12px" stroke-dashoffset="0" image-rendering="auto">
  <!--Generated by ySVG 2.5-->
  <defs id="genericDefs"/>
  <g>
    <defs id="defs1">
      <clipPath clipPathUnits="userSpaceOnUse" id="clipPath1">
        <path d="M0 0 L818 0 L818 410 L0 410 L0 0 Z"/>
      </clipPath>
      <clipPath clipPathUnits="userSpaceOnUse" id="clipPath2">
        <path d="M-121 635 L697 635 L697 1045 L-121 1045 L-121 635 Z"/>
      </clipPath>
    </defs>
    <g fill="white" text-rendering="geometricPrecision" shape-rendering="geometricPrecision" transform="translate(121,-635)" stroke="white">
      <rect x="-121" width="818" height="410" y="635" clip-path="url(#clipPath2)" stroke="none"/>
    </g>
    <g fill="rgb(255,204,0)" text-rendering="geometricPrecision" shape-rendering="geometricPrecision" transform="matrix(1,0,0,1,121,-635)" stroke="rgb(255,204,0)">
      <rect x="-105.423" y="784" clip-path="url(#clipPath2)" width="114" rx="4" ry="4" height="30" stroke="none"/>
    </g>
    <g text-rendering="geometricPrecision" stroke-miterlimit="1.45" shape-rendering="geometricPrecision" transform="matrix(1,0,0,1,121,-635)" stroke-linecap="butt">
      <rect x="-105.423" y="784" clip-path="url(#clipPath2)" fill="none" width="114" rx="4" ry="4" height="30"/>
      <text x="-92.6173" xml:space="preserve" y="803.1543" clip-path="url(#clipPath2)" font-family="sans-serif" stroke="none">Principios FAIR</text>
      <rect x="188.5912" y="754" clip-path="url(#clipPath2)" fill="none" width="149" stroke-dasharray="6,2" rx="4" ry="4" height="30"/>
      <text x="194.5307" xml:space="preserve" y="773.1543" clip-path="url(#clipPath2)" font-family="sans-serif" stroke="none">Infraestructura técnica</text>
      <rect x="188.5912" y="814" clip-path="url(#clipPath2)" fill="none" width="81" stroke-dasharray="6,2" rx="4" ry="4" height="30"/>
      <text x="198.435" xml:space="preserve" y="833.1543" clip-path="url(#clipPath2)" font-family="sans-serif" stroke="none">Contenido</text>
    </g>
    <g fill="rgb(255,204,0)" text-rendering="geometricPrecision" shape-rendering="geometricPrecision" transform="matrix(1,0,0,1,121,-635)" stroke="rgb(255,204,0)">
      <circle r="15" clip-path="url(#clipPath2)" cx="143.5912" cy="799" stroke="none"/>
    </g>
    <g text-rendering="geometricPrecision" stroke-miterlimit="1.45" shape-rendering="geometricPrecision" transform="matrix(1,0,0,1,121,-635)" stroke-linecap="butt">
      <circle fill="none" r="15" clip-path="url(#clipPath2)" cx="143.5912" cy="799"/>
    </g>
    <g fill="rgb(153,204,255)" text-rendering="geometricPrecision" shape-rendering="geometricPrecision" transform="matrix(1,0,0,1,121,-635)" stroke="rgb(153,204,255)">
      <rect x="401.7638" y="754" clip-path="url(#clipPath2)" width="167.0105" rx="4" ry="4" height="30" stroke="none"/>
    </g>
    <g text-rendering="geometricPrecision" stroke-miterlimit="1.45" shape-rendering="geometricPrecision" transform="matrix(1,0,0,1,121,-635)" stroke-linecap="butt">
      <rect x="401.7638" y="754" clip-path="url(#clipPath2)" fill="none" width="167.0105" rx="4" ry="4" height="30"/>
      <text x="410.31" xml:space="preserve" y="766.1699" clip-path="url(#clipPath2)" font-family="sans-serif" stroke="none">F1 - URIs</text>
      <text x="410.31" xml:space="preserve" y="780.1387" clip-path="url(#clipPath2)" font-family="sans-serif" stroke="none">F4 - Searchable resource</text>
    </g>
    <g fill="rgb(153,204,255)" text-rendering="geometricPrecision" shape-rendering="geometricPrecision" transform="matrix(1,0,0,1,121,-635)" stroke="rgb(153,204,255)">
      <rect x="401.7638" y="814" clip-path="url(#clipPath2)" width="204.091" rx="4" ry="4" height="30" stroke="none"/>
    </g>
    <g text-rendering="geometricPrecision" stroke-miterlimit="1.45" shape-rendering="geometricPrecision" transform="matrix(1,0,0,1,121,-635)" stroke-linecap="butt">
      <rect x="401.7638" y="814" clip-path="url(#clipPath2)" fill="none" width="204.091" rx="4" ry="4" height="30"/>
      <text x="409.0368" xml:space="preserve" y="826.1699" clip-path="url(#clipPath2)" font-family="sans-serif" stroke="none">F2 - Rich metadata</text>
      <text x="409.0368" xml:space="preserve" y="840.1387" clip-path="url(#clipPath2)" font-family="sans-serif" stroke="none">F3 - Data identifier in metadata</text>
    </g>
    <g fill="rgb(153,204,255)" text-rendering="geometricPrecision" shape-rendering="geometricPrecision" transform="matrix(1,0,0,1,121,-635)" stroke="rgb(153,204,255)">
      <rect x="401.7638" y="650.5629" clip-path="url(#clipPath2)" width="279.3113" rx="4" ry="4" height="73.4371" stroke="none"/>
    </g>
    <g text-rendering="geometricPrecision" stroke-miterlimit="1.45" shape-rendering="geometricPrecision" transform="matrix(1,0,0,1,121,-635)" stroke-linecap="butt">
      <rect x="401.7638" y="650.5629" clip-path="url(#clipPath2)" fill="none" width="279.3113" rx="4" ry="4" height="73.4371"/>
      <text x="406.3872" xml:space="preserve" y="670.4826" clip-path="url(#clipPath2)" font-family="sans-serif" stroke="none">A1 - Protocol</text>
      <text x="406.3872" xml:space="preserve" y="684.4514" clip-path="url(#clipPath2)" font-family="sans-serif" stroke="none">A1.1 - Open, free, universally implementable</text>
      <text x="406.3872" xml:space="preserve" y="698.4201" clip-path="url(#clipPath2)" font-family="sans-serif" stroke="none">A1.2 - Authentication, authorization</text>
      <text x="406.3872" xml:space="preserve" y="712.3889" clip-path="url(#clipPath2)" font-family="sans-serif" stroke="none">A2- Metadata accesible if no data</text>
    </g>
    <g fill="rgb(153,204,255)" text-rendering="geometricPrecision" shape-rendering="geometricPrecision" transform="matrix(1,0,0,1,121,-635)" stroke="rgb(153,204,255)">
      <rect x="401.7638" y="874" clip-path="url(#clipPath2)" width="219.9826" rx="4" ry="4" height="54.3672" stroke="none"/>
    </g>
    <g text-rendering="geometricPrecision" stroke-miterlimit="1.45" shape-rendering="geometricPrecision" transform="matrix(1,0,0,1,121,-635)" stroke-linecap="butt">
      <rect x="401.7638" y="874" clip-path="url(#clipPath2)" fill="none" width="219.9826" rx="4" ry="4" height="54.3672"/>
      <text x="407.7306" xml:space="preserve" y="891.3691" clip-path="url(#clipPath2)" font-family="sans-serif" stroke="none">I1 - Formal, accesible ... KR</text>
      <text x="407.7306" xml:space="preserve" y="905.3379" clip-path="url(#clipPath2)" font-family="sans-serif" stroke="none">I2 - FAIR vocabularies</text>
      <text x="407.7306" xml:space="preserve" y="919.3066" clip-path="url(#clipPath2)" font-family="sans-serif" stroke="none">I3 - References to other metadata </text>
    </g>
    <g fill="rgb(153,204,255)" text-rendering="geometricPrecision" shape-rendering="geometricPrecision" transform="matrix(1,0,0,1,121,-635)" stroke="rgb(153,204,255)">
      <rect x="401.7638" y="955.7185" clip-path="url(#clipPath2)" width="279.3113" rx="4" ry="4" height="73.4371" stroke="none"/>
    </g>
    <g text-rendering="geometricPrecision" stroke-miterlimit="1.45" shape-rendering="geometricPrecision" transform="matrix(1,0,0,1,121,-635)" stroke-linecap="butt">
      <rect x="401.7638" y="955.7185" clip-path="url(#clipPath2)" fill="none" width="279.3113" rx="4" ry="4" height="73.4371"/>
      <text x="414.7778" xml:space="preserve" y="975.6382" clip-path="url(#clipPath2)" font-family="sans-serif" stroke="none">R1 - (Meta)data are richly described</text>
      <text x="414.7778" xml:space="preserve" y="989.607" clip-path="url(#clipPath2)" font-family="sans-serif" stroke="none">R1.1 - Clear license</text>
      <text x="414.7778" xml:space="preserve" y="1003.5757" clip-path="url(#clipPath2)" font-family="sans-serif" stroke="none">R1.2 - Detailed provenance</text>
      <text x="414.7778" xml:space="preserve" y="1017.5445" clip-path="url(#clipPath2)" font-family="sans-serif" stroke="none">R1.3 - Domain level community standards</text>
      <path fill="none" d="M8.599 799 L120.5912 799" clip-path="url(#clipPath2)"/>
      <path d="M128.5912 799 L116.5912 794 L119.5912 799 L116.5912 804 Z" clip-path="url(#clipPath2)" stroke="none"/>
      <text x="31.4957" font-size="8px" y="789.7095" clip-path="url(#clipPath2)" font-family="sans-serif" stroke="none" xml:space="preserve">Implementación</text>
      <path fill="none" d="M156.0742 790.6829 L181.928 773.457" clip-path="url(#clipPath2)"/>
      <path d="M188.5856 769.0212 L175.8268 771.5139 L181.0958 774.0115 L181.3715 779.8359 Z" clip-path="url(#clipPath2)" stroke="none"/>
      <path fill="none" d="M156.0729 807.3191 L181.9138 824.542" clip-path="url(#clipPath2)"/>
      <path d="M188.5707 828.9788 L181.3583 818.163 L181.0816 823.9874 L175.8123 826.4841 Z" clip-path="url(#clipPath2)" stroke="none"/>
      <path fill="none" d="M337.5935 769 L393.7328 769" clip-path="url(#clipPath2)"/>
      <path d="M401.7328 769 L389.7328 764 L392.7328 769 L389.7328 774 Z" clip-path="url(#clipPath2)" stroke="none"/>
      <path fill="none" d="M269.5678 829 L393.7575 829" clip-path="url(#clipPath2)"/>
      <path d="M401.7575 829 L389.7575 824 L392.7575 829 L389.7575 834 Z" clip-path="url(#clipPath2)" stroke="none"/>
      <path fill="none" d="M337.5807 768.98 L396.7974 693.5733" clip-path="url(#clipPath2)"/>
      <path d="M401.7383 687.2814 L390.3946 693.6311 L396.1798 694.3597 L398.2594 699.8073 Z" clip-path="url(#clipPath2)" stroke="none"/>
      <path fill="none" d="M269.6122 829.0176 L394.7321 897.3491" clip-path="url(#clipPath2)"/>
      <path d="M401.7533 901.1836 L393.618 891.0436 L393.8545 896.8698 L388.825 899.8201 Z" clip-path="url(#clipPath2)" stroke="none"/>
      <path fill="none" d="M269.5961 829.02 L396.7082 986.2164" clip-path="url(#clipPath2)"/>
      <path d="M401.7384 992.4371 L398.081 979.9622 L396.0794 985.4388 L390.3051 986.2499 Z" clip-path="url(#clipPath2)" stroke="none"/>
    </g>
  </g>
</svg>
