<?xml version="1.0" encoding="UTF-8"?><svg xmlns="http://www.w3.org/2000/svg" xmlns:xlink="http://www.w3.org/1999/xlink" fill-opacity="1" color-rendering="auto" color-interpolation="auto" text-rendering="auto" stroke="black" stroke-linecap="square" width="892" stroke-miterlimit="10" shape-rendering="auto" stroke-opacity="1" fill="black" stroke-dasharray="none" font-weight="normal" stroke-width="1" height="342" font-family="'Dialog'" font-style="normal" stroke-linejoin="miter" font-size="12px" stroke-dashoffset="0" image-rendering="auto">
  <!--Generated by ySVG 2.6-->
  <defs id="genericDefs"/>
  <g>
    <g fill="white" text-rendering="geometricPrecision" shape-rendering="geometricPrecision" transform="translate(-631,-247)" stroke="white">
      <rect x="631" width="892" height="342" y="247" clip-path="url(#clipPath2)" stroke="none"/>
    </g>
    <g stroke-linecap="butt" transform="matrix(1,0,0,1,-631,-247)" fill="silver" text-rendering="geometricPrecision" shape-rendering="geometricPrecision" stroke-dasharray="6,2" stroke="silver" stroke-miterlimit="1.45">
      <rect x="646.4912" y="262.9536" clip-path="url(#clipPath2)" fill="none" width="623" rx="4" ry="4" height="225.5905"/>
    </g>
    <g fill="url(#linearGradient1)" text-rendering="geometricPrecision" shape-rendering="geometricPrecision" transform="matrix(1,0,0,1,-631,-247)" stroke="url(#linearGradient1)">
      <path d="M1181.536 329.1093 Q1186.536 314.1093 1201.536 309.1093 L1345.536 309.1093 Q1355.536 329.1093 1345.536 349.1093 L1201.536 349.1093 Q1186.536 344.1093 1181.536 329.1093" stroke="none" clip-path="url(#clipPath2)"/>
    </g>
    <g text-rendering="geometricPrecision" stroke-miterlimit="1.45" shape-rendering="geometricPrecision" transform="matrix(1,0,0,1,-631,-247)" stroke-linecap="butt">
      <path fill="none" d="M1181.536 329.1093 Q1186.536 314.1093 1201.536 309.1093 L1345.536 309.1093 Q1355.536 329.1093 1345.536 349.1093 L1201.536 349.1093 Q1186.536 344.1093 1181.536 329.1093" clip-path="url(#clipPath2)"/>
      <text x="1210.7469" xml:space="preserve" y="333.2636" clip-path="url(#clipPath2)" font-family="sans-serif" stroke="none">Web / Linked Data</text>
    </g>
    <g fill="url(#linearGradient2)" text-rendering="geometricPrecision" shape-rendering="geometricPrecision" transform="matrix(1,0,0,1,-631,-247)" stroke="url(#linearGradient2)">
      <path d="M1186.536 438.4565 Q1191.536 423.4565 1206.536 418.4565 L1350.536 418.4565 Q1360.536 438.4565 1350.536 458.4565 L1206.536 458.4565 Q1191.536 453.4565 1186.536 438.4565" stroke="none" clip-path="url(#clipPath2)"/>
    </g>
    <g text-rendering="geometricPrecision" stroke-miterlimit="1.45" shape-rendering="geometricPrecision" transform="matrix(1,0,0,1,-631,-247)" stroke-linecap="butt">
      <path fill="none" d="M1186.536 438.4565 Q1191.536 423.4565 1206.536 418.4565 L1350.536 418.4565 Q1360.536 438.4565 1350.536 458.4565 L1206.536 458.4565 Q1191.536 453.4565 1186.536 438.4565" clip-path="url(#clipPath2)"/>
      <text x="1231.2684" xml:space="preserve" y="442.6107" clip-path="url(#clipPath2)" font-family="sans-serif" stroke="none">SPARQL form</text>
    </g>
    <g text-rendering="geometricPrecision" stroke-miterlimit="1.45" stroke-dasharray="6,2" shape-rendering="geometricPrecision" transform="matrix(1,0,0,1,-631,-247)" stroke-linecap="butt">
      <rect x="809.4912" y="423.4564" clip-path="url(#clipPath2)" fill="none" width="101" rx="4" ry="4" height="30"/>
      <text x="814.1768" y="442.6107" clip-path="url(#clipPath2)" font-family="sans-serif" stroke-dasharray="none" stroke="none" xml:space="preserve">SPARQL (HTTP)</text>
    </g>
    <g text-rendering="geometricPrecision" shape-rendering="geometricPrecision" transform="matrix(1,0,0,1,790.1707,259.014)">
      <g clip-path="url(#clipPath3)">
        <svg xml:space="preserve" opacity="1" writing-mode="lr-tb" stop-color="rgb(0, 0, 0)" shape-rendering="auto" glyph-orientation-horizontal="0deg" color-profile="auto" lighting-color="rgb(255, 255, 255)" color="rgb(0, 0, 0)" font-weight="400" alignment-baseline="auto" font-style="normal" version="1.1" color-interpolation-filters="linearrgb" text-anchor="start" stroke-linecap="butt" color-interpolation="srgb" font-variant="normal" word-spacing="normal" fill-opacity="1" text-rendering="auto" clip-path="none" text-decoration="none" letter-spacing="normal" viewBox="-0.064 -0.075 68 46" glyph-orientation-vertical="auto" display="inline" font-size-adjust="none" overflow="hidden" fill="rgb(0, 0, 0)" font-stretch="normal" stroke-dasharray="none" stroke-miterlimit="4" stop-opacity="1" color-rendering="auto" font-size="12" pointer-events="visiblepainted" mask="none" direction="ltr" baseline-shift="baseline" enable-background="new -0.064 -0.075 68 46" fill-rule="nonzero" image-rendering="auto" stroke-dashoffset="0" width="68px" marker-end="none" clip="auto" cursor="auto" stroke="none" filter="none" visibility="visible" kerning="auto" stroke-width="1" font-family="&quot;Arial&quot;,&quot;Helvetica&quot;,sans-serif" flood-opacity="1" clip-rule="nonzero" src="none" height="46px" unicode-bidi="normal" stroke-linejoin="miter" stroke-opacity="1" flood-color="rgb(0, 0, 0)" dominant-baseline="auto" marker-start="none" x="0px" marker-mid="none" y="0px">
<defs>
<linearGradient x1="1181.536" gradientUnits="userSpaceOnUse" x2="1350.536" y1="309.1093" y2="349.1093" id="linearGradient1" spreadMethod="reflect"><stop stop-opacity="1" stop-color="rgb(232,238,247)" offset="0%"/><stop stop-opacity="1" stop-color="rgb(183,201,227)" offset="100%"/></linearGradient><linearGradient x1="1186.536" gradientUnits="userSpaceOnUse" x2="1355.536" y1="418.4565" y2="458.4565" id="linearGradient2" spreadMethod="reflect"><stop stop-opacity="1" stop-color="rgb(232,238,247)" offset="0%"/><stop stop-opacity="1" stop-color="rgb(183,201,227)" offset="100%"/></linearGradient><linearGradient x1="1006.9077" gradientUnits="userSpaceOnUse" x2="1124.9077" y1="418.4565" y2="458.4565" id="linearGradient3" spreadMethod="reflect"><stop stop-opacity="1" stop-color="rgb(232,238,247)" offset="0%"/><stop stop-opacity="1" stop-color="rgb(183,201,227)" offset="100%"/></linearGradient><linearGradient x1="677.233" gradientUnits="userSpaceOnUse" x2="766.233" y1="403.1931" y2="473.7198" id="linearGradient4" spreadMethod="reflect"><stop stop-opacity="1" stop-color="rgb(232,238,247)" offset="0%"/><stop stop-opacity="1" stop-color="rgb(183,201,227)" offset="100%"/></linearGradient><linearGradient x1="687.9839" gradientUnits="userSpaceOnUse" x2="755.4819" y1="299.9188" y2="358.2998" id="linearGradient5" spreadMethod="reflect"><stop stop-opacity="1" stop-color="rgb(232,238,247)" offset="0%"/><stop stop-opacity="1" stop-color="rgb(183,201,227)" offset="100%"/></linearGradient><clipPath clipPathUnits="userSpaceOnUse" id="clipPath1"><path d="M0 0 L892 0 L892 342 L0 342 L0 0 Z"/></clipPath><clipPath clipPathUnits="userSpaceOnUse" id="clipPath2"><path d="M631 247 L1523 247 L1523 589 L631 589 L631 247 Z"/></clipPath><clipPath clipPathUnits="userSpaceOnUse" id="clipPath3"><path d="M-790.1707 -259.0027 L101.8293 -259.0027 L101.8293 82.9823 L-790.1707 82.9823 L-790.1707 -259.0027 Z"/></clipPath><clipPath clipPathUnits="userSpaceOnUse" id="clipPath4"><path d="M-794.733 -162.2659 L97.2662 -162.2659 L97.2662 179.7341 L-794.733 179.7341 L-794.733 -162.2659 Z"/></clipPath><clipPath clipPathUnits="userSpaceOnUse" id="clipPath5"><path d="M-794.6697 -59.1377 L97.3303 -59.1377 L97.3303 282.8474 L-794.6697 282.8474 L-794.6697 -59.1377 Z"/></clipPath></defs>
<radialGradient gradientTransform="matrix(1.15 0 0 1 -526.6598 -1982.4023)" id="svg1.SVGID_1_" r="21.6001" cx="478.8413" gradientUnits="userSpaceOnUse" cy="1991.2729">
	<stop offset="0" style="stop-color:#F2F2F2"/>
	<stop offset="1" style="stop-color:#8D8D8D"/>
</radialGradient>
<path fill="url(#svg1.SVGID_1_)" d="M10.263,1.903c0-0.987,0.807-1.794,1.794-1.794h43.279c0.986,0,1.795,0.807,1.795,1.794v26.978  c0,0.987-0.809,1.794-1.795,1.794h-43.28c-0.987,0-1.794-0.807-1.794-1.794L10.263,1.903L10.263,1.903z"/>
<path stroke-linecap="round" display="none" fill="none" stroke-linejoin="round" d="  M10.263,1.903c0-0.987,0.807-1.794,1.794-1.794h43.279c0.986,0,1.795,0.807,1.795,1.794v26.978c0,0.987-0.809,1.794-1.795,1.794  h-43.28c-0.987,0-1.794-0.807-1.794-1.794L10.263,1.903L10.263,1.903z" stroke="#3C89C9" stroke-width="0.2185" stroke-miterlimit="10"/>
<radialGradient gradientTransform="matrix(1.1935 0 0 1 -509.6731 -1982.4023)" gradientUnits="userSpaceOnUse" r="47.8462" cx="455.894" id="svg1.SVGID_2_" cy="1983.9624" fx="493.5344" fy="1977.5143">
	<stop offset="0" style="stop-color:#4D4D4D"/>
	<stop offset="1" style="stop-color:#999999"/>
</radialGradient>
<path fill="url(#svg1.SVGID_2_)" d="M11.18,2.819c0-0.987,0.807-1.794,1.794-1.794h41.649c0.986,0,1.795,0.807,1.795,1.794v24.943  c0,0.985-0.809,1.794-1.795,1.794H12.974c-0.987,0-1.794-0.809-1.794-1.794V2.819z"/>
<radialGradient gradientTransform="matrix(1.1923 0 0 1 -510.1314 -1982.4023)" id="svg1.SVGID_3_" r="30.6699" cx="456.8843" gradientUnits="userSpaceOnUse" cy="1984.0386">
	<stop offset="0" style="stop-color:#9CD7FF"/>
	<stop offset="1" style="stop-color:#3C89C9"/>
</radialGradient>
<path fill="url(#svg1.SVGID_3_)" d="M11.689,3.228c0-0.987,0.807-1.794,1.794-1.794h40.633c0.986,0,1.795,0.807,1.795,1.794v24.126  c0,0.986-0.809,1.794-1.795,1.794H13.483c-0.987,0-1.794-0.809-1.794-1.794V3.228z"/>
<path fill="#F2F2F2" opacity="0.24" d="M11.689,21.472V3.228c0-0.987,0.807-1.794,1.794-1.794h40.633  c0.986,0,1.795,0.807,1.795,1.794v9.454c0,0.987-10.518,5.21-18.256,6.795C29.917,21.062,11.689,21.472,11.689,21.472z"/>
<linearGradient gradientTransform="matrix(1 0 0 -1 -97.6001 -165.0498)" x1="131.3501" x2="131.3501" gradientUnits="userSpaceOnUse" y1="-212.2612" y2="-170.6274" id="svg1.SVGID_4_">
	<stop offset="0" style="stop-color:#4D4D4D"/>
	<stop offset="0.0667" style="stop-color:#717171"/>
	<stop offset="0.069" style="stop-color:#757575"/>
	<stop offset="0.0831" style="stop-color:#8C8C8C"/>
	<stop offset="0.0996" style="stop-color:#9E9E9E"/>
	<stop offset="0.1196" style="stop-color:#AAAAAA"/>
	<stop offset="0.1466" style="stop-color:#B1B1B1"/>
	<stop offset="0.2121" style="stop-color:#B3B3B3"/>
	<stop offset="1" style="stop-color:#C5C5C5"/>
</linearGradient>
<path fill="url(#svg1.SVGID_4_)" d="M58.385,32.234c-0.689-0.856-2.154-1.559-3.254-1.559H12c-1.1,0-2.552,0.711-3.227,1.579  l-7.546,9.717C0,43.55,0.042,43.785,0,44.55v0.125c0.056,0.393,0.311,1.002,1.248,1.002h64.75c0.75,0.002,1.5-0.252,1.5-1.002V44.55  c0-0.813,0-0.813-1.254-2.559L58.385,32.234z"/>
<path fill="#F2F2F2" d="M58.385,32.234c-0.689-0.856-2.154-1.559-3.254-1.559H12  c-1.1,0-2.552,0.711-3.227,1.579l-7.055,9.085l58.098-7.33L58.385,32.234z" enable-background="new    " opacity="0.23"/>
<path fill="#6E6E6E" d="M59.75,37.205c0.344,0.431,0.172,0.783-0.377,0.783H8.249c-0.55,0-0.742-0.369-0.427-0.819l2.786-3.986  c0.315-0.45,1.023-0.819,1.573-0.819h42.729c0.551,0,1.279,0.354,1.623,0.783L59.75,37.205z"/>
<path fill="#6E6E6E" d="M40.43,41.906c0.072,0.217-0.057,0.395-0.285,0.395H26.727c-0.229,0-0.364-0.18-0.3-0.398l0.822-2.826  c0.064-0.221,0.303-0.399,0.532-0.399h11.167c0.229,0,0.475,0.179,0.547,0.396L40.43,41.906z"/>
</svg>
      </g>
    </g>
    <g text-rendering="geometricPrecision" stroke-miterlimit="1.45" shape-rendering="geometricPrecision" font-family="sans-serif" transform="matrix(1,0,0,1,-631,-247)" stroke-linecap="butt">
      <text x="1409.0463" xml:space="preserve" y="568.9067" clip-path="url(#clipPath2)" stroke="none">Data consumer</text>
    </g>
    <g text-rendering="geometricPrecision" shape-rendering="geometricPrecision" transform="matrix(1,0,0,1,794.7337,162.2659)">
      <g clip-path="url(#clipPath4)">
        <svg xml:space="preserve" opacity="1" writing-mode="lr-tb" stop-color="rgb(0, 0, 0)" shape-rendering="auto" glyph-orientation-horizontal="0deg" color-profile="auto" lighting-color="rgb(255, 255, 255)" color="rgb(0, 0, 0)" font-weight="400" alignment-baseline="auto" font-style="normal" version="1.1" color-interpolation-filters="linearrgb" text-anchor="start" stroke-linecap="butt" color-interpolation="srgb" font-variant="normal" word-spacing="normal" fill-opacity="1" text-rendering="auto" clip-path="none" text-decoration="none" letter-spacing="normal" viewBox="0 0 59 59" glyph-orientation-vertical="auto" display="inline" font-size-adjust="none" overflow="hidden" fill="rgb(0, 0, 0)" font-stretch="normal" stroke-dasharray="none" id="svg2.Ebene_1" stroke-miterlimit="4" stop-opacity="1" color-rendering="auto" font-size="12" pointer-events="visiblepainted" mask="none" direction="ltr" baseline-shift="baseline" enable-background="new 0 0 59 59" fill-rule="nonzero" image-rendering="auto" stroke-dashoffset="0" width="59px" marker-end="none" clip="auto" cursor="auto" stroke="none" filter="none" visibility="visible" kerning="auto" stroke-width="1" font-family="&quot;Arial&quot;,&quot;Helvetica&quot;,sans-serif" flood-opacity="1" clip-rule="nonzero" src="none" height="59px" unicode-bidi="normal" stroke-linejoin="miter" stroke-opacity="1" flood-color="rgb(0, 0, 0)" dominant-baseline="auto" marker-start="none" x="0px" marker-mid="none" y="0px">
<g>
	
		<linearGradient gradientTransform="matrix(1 0 0 -1 0.2002 -1487.2285)" x1="13.6323" x2="14.3617" gradientUnits="userSpaceOnUse" y1="-1502.7422" y2="-1520.2559" id="svg2.neck_x5F_white_1_">
		<stop offset="0.2711" style="stop-color:#FFAB4F"/>
		<stop offset="1" style="stop-color:#FFD28F"/>
	</linearGradient>
	<path fill="url(#svg2.neck_x5F_white_1_)" id="svg2.neck_x5F_white_19_" stroke-width="0.5" d="   M9.639,18.899h9.093v10.115c-0.656,0.186-8.586,0.218-9.093,0.086V18.899z" stroke-miterlimit="10" stroke="#FFAB4F"/>
	
		<linearGradient gradientTransform="matrix(1 0 0 -1 0.2002 -1487.2285)" x1="13.1294" x2="13.75" gradientUnits="userSpaceOnUse" y1="-1499.207" y2="-1514.1072" id="svg2.SVGID_1_">
		<stop offset="0.2711" style="stop-color:#FFAB4F"/>
		<stop offset="1" style="stop-color:#FFD28F"/>
	</linearGradient>
	<path fill="url(#svg2.SVGID_1_)" stroke-width="0.5" d="M24.766,25.612   c-2.199-2.197-5.477-2.941-6.033-3.055v-3.658H9.639c0,0,0.019,3.452,0,3.435c0,0-3.437,0.499-6.154,3.216   c-2.796,2.796-3.235,5.835-3.235,5.835c0,0.971,0.788,1.746,1.762,1.746h24.255c0.974,0,1.761-0.777,1.761-1.746   C28.027,31.384,27.105,27.953,24.766,25.612z" stroke-miterlimit="10" stroke="#ED9135"/>
	
		<radialGradient gradientTransform="matrix(1 0 0 -1 0.2002 -1487.2285)" gradientUnits="userSpaceOnUse" r="11.7123" cx="13.7515" id="svg2.face_x5F_white_1_" cy="-1500.0908" fx="11.4666" fy="-1501.3357">
		<stop offset="0" style="stop-color:#FFD28F"/>
		<stop offset="1" style="stop-color:#FFAB4F"/>
	</radialGradient>
	<path fill="url(#svg2.face_x5F_white_1_)" id="svg2.face_x5F_white_19_" stroke-width="0.5" d="   M21.838,11.679c0.043,5.1-3.369,9.26-7.623,9.293C9.964,21.006,6.483,16.899,6.44,11.8c-0.042-5.1,3.37-9.261,7.622-9.294   C18.314,2.473,21.795,6.579,21.838,11.679z" stroke-miterlimit="10" stroke="#ED9135"/>
	
		<linearGradient gradientTransform="matrix(0.275 0 0 0.2733 -1169.7629 -2324.9595)" x1="4300.0391" x2="4311.8545" gradientUnits="userSpaceOnUse" y1="8522.0703" y2="8568.7988" id="svg2.face_highlight_1_">
		<stop offset="0" style="stop-color:#FFFFFF;stop-opacity:0.24"/>
		<stop offset="1" style="stop-color:#FFFFFF;stop-opacity:0.16"/>
	</linearGradient>
	<path fill="url(#svg2.face_highlight_1_)" id="svg2.face_highlight_19_" d="M13.979,3.166c-3.018,0.023-5.374,2.247-6.394,5.193   c-0.332,0.96-0.147,2.021,0.49,2.814c1.365,1.699,2.865,3.142,4.73,4.044c1.569,0.759,3.767,1.192,5.946,0.624   c1.139-0.297,1.994-1.229,2.188-2.383c0.092-0.548,0.146-1.145,0.143-1.777C21.041,6.977,18.137,3.134,13.979,3.166z"/>
	
		<path stroke-linecap="round" fill="#4B4B4B" stroke-linejoin="round" d="   M14.187,0.25c-5.418,0-10.052,3.624-9.61,12.813c0.282,3.281,2.931,6.021,4.683,6.766C7.795,14.344,9.107,7.317,8.967,7.064   c-0.14-0.252,1.769,3.364,1.769,3.364l1.591-4.155c2.771,2.14,0.197,5.654,0.524,5.528c2.129-0.815,2.67-4.614,2.67-4.614   s1.364,1.829,1.35,2.752c-0.025,1.781,1.098-3.033,1.098-3.033l0.514,1.016c3.363,4.911,1.842,8.104,0.826,11.391   c7.834-0.352,6.146-5.24,4.83-9.203C21.795,3.046,19.604,0.25,14.187,0.25z" id="svg2.Hair_Female_1_Black_9_" stroke="#000000" stroke-width="0.5"/>
	
		<linearGradient gradientTransform="matrix(0.9852 0 0 0.9852 -22.6981 -2330.2188)" x1="53.4854" x2="21.2897" gradientUnits="userSpaceOnUse" y1="2393.7295" y2="2393.7295" id="svg2.body_1_">
		<stop offset="0" style="stop-color:#49AD33"/>
		<stop offset="1" style="stop-color:#C2DA92"/>
	</linearGradient>
	<path fill="url(#svg2.body_1_)" id="svg2.body_63_" d="M0.25,31.384c0,0.97,0.788,1.747,1.762,1.747   h24.255c0.974,0,1.761-0.779,1.761-1.747c0,0-0.922-3.431-3.262-5.771c-2.408-2.406-4.123-2.572-4.123-2.572   c-0.723,3.491-4.277,4.393-6.503,4.393c-2.227,0-5.75-0.994-6.06-4.393c0,0-1.877-0.207-4.594,2.51   C0.689,28.345,0.25,31.384,0.25,31.384z" stroke-width="0.5" stroke="#008D33"/>
	
		<linearGradient gradientTransform="matrix(1 0 0 -1 0.2002 -1487.2285)" x1="43.8525" x2="44.5819" gradientUnits="userSpaceOnUse" y1="-1502.7417" y2="-1520.2552" id="svg2.neck_x5F_white_3_">
		<stop offset="0.2711" style="stop-color:#FFAB4F"/>
		<stop offset="1" style="stop-color:#FFD28F"/>
	</linearGradient>
	<path fill="url(#svg2.neck_x5F_white_3_)" id="svg2.neck_x5F_white_17_" stroke-width="0.5" d="   M39.859,18.899h9.094v10.115c-0.656,0.186-8.586,0.218-9.094,0.086V18.899z" stroke-miterlimit="10" stroke="#FFAB4F"/>
	
		<linearGradient gradientTransform="matrix(1 0 0 -1 0.2002 -1487.2285)" x1="43.3506" x2="43.9712" gradientUnits="userSpaceOnUse" y1="-1499.2075" y2="-1514.1077" id="svg2.SVGID_2_">
		<stop offset="0.2711" style="stop-color:#FFAB4F"/>
		<stop offset="1" style="stop-color:#FFD28F"/>
	</linearGradient>
	<path fill="url(#svg2.SVGID_2_)" stroke-width="0.5" d="M54.986,25.612   c-2.199-2.197-5.478-2.941-6.033-3.055v-3.658h-9.094c0,0,0.02,3.452,0,3.435c0,0-3.438,0.499-6.153,3.216   c-2.796,2.796-3.235,5.835-3.235,5.835c0,0.971,0.787,1.746,1.762,1.746h24.256c0.974,0,1.761-0.777,1.761-1.746   C58.248,31.384,57.326,27.953,54.986,25.612z" stroke-miterlimit="10" stroke="#ED9135"/>
	
		<radialGradient gradientTransform="matrix(1 0 0 -1 0.2002 -1487.2285)" gradientUnits="userSpaceOnUse" r="11.7111" cx="43.9727" id="svg2.face_x5F_white_3_" cy="-1500.0908" fx="41.6881" fy="-1501.3356">
		<stop offset="0" style="stop-color:#FFD28F"/>
		<stop offset="1" style="stop-color:#FFAB4F"/>
	</radialGradient>
	<path fill="url(#svg2.face_x5F_white_3_)" id="svg2.face_x5F_white_17_" stroke-width="0.5" d="   M52.059,11.679c0.043,5.1-3.369,9.26-7.623,9.293c-4.25,0.034-7.731-4.073-7.774-9.172c-0.042-5.1,3.368-9.261,7.622-9.294   C48.536,2.473,52.016,6.579,52.059,11.679z" stroke-miterlimit="10" stroke="#ED9135"/>
	
		<linearGradient gradientTransform="matrix(0.275 0 0 0.2733 -1169.7629 -2324.9595)" x1="4409.9326" x2="4421.7476" gradientUnits="userSpaceOnUse" y1="8522.0703" y2="8568.7969" id="svg2.face_highlight_3_">
		<stop offset="0" style="stop-color:#FFFFFF;stop-opacity:0.24"/>
		<stop offset="1" style="stop-color:#FFFFFF;stop-opacity:0.16"/>
	</linearGradient>
	<path fill="url(#svg2.face_highlight_3_)" id="svg2.face_highlight_17_" d="M44.2,3.166c-3.019,0.023-5.374,2.247-6.394,5.193   c-0.332,0.96-0.147,2.021,0.489,2.814c1.364,1.699,2.864,3.142,4.729,4.044c1.568,0.759,3.768,1.192,5.945,0.624   c1.139-0.297,1.994-1.229,2.188-2.383c0.092-0.548,0.146-1.145,0.143-1.777C51.262,6.977,48.357,3.134,44.2,3.166z"/>
	
		<path stroke-linecap="round" fill="#ECECEC" stroke-linejoin="round" d="   M40.359,6.625c0,0,2.66,3.625,7.5,1.875c1.365-0.281,4.529,0.518,4.529,0.518s-1.828-8.085-8.523-7.646   c-8.943,0.69-7.615,11.467-7.615,11.467s1.384-0.342,2.518-2.401C39.255,9.553,40.359,6.625,40.359,6.625z" id="svg2.hair_x5F_gray_17_" stroke="#9B9B9B" stroke-width="0.5"/>
	
		<radialGradient gradientTransform="matrix(1 0 0 -1 0.2002 -1487.2285)" id="svg2.collar_x5F_body_2_" r="16.2003" cx="37.6602" gradientUnits="userSpaceOnUse" cy="-1515.813">
		<stop offset="0" style="stop-color:#B0E8FF"/>
		<stop offset="1" style="stop-color:#74AEEE"/>
	</radialGradient>
	<path fill="url(#svg2.collar_x5F_body_2_)" id="svg2.collar_x5F_body_8_" d="M30.471,31.384   c0,0.97,0.787,1.747,1.762,1.747h24.256c0.974,0,1.761-0.779,1.761-1.747c0,0-0.922-3.431-3.263-5.771   c-2.407-2.406-5.623-3.072-5.623-3.072c-0.885,0.827-2.805,1.4-5.03,1.4s-4.146-0.573-5.031-1.4c0,0-2.878,0.293-5.595,3.01   C30.91,28.345,30.471,31.384,30.471,31.384z" stroke-width="0.5" stroke="#5491CF"/>
	
		<radialGradient gradientTransform="matrix(1 0 0 -1 0.2002 -1487.2285)" id="svg2.collar_x5F_r_2_" r="4.6401" cx="45.8311" gradientUnits="userSpaceOnUse" cy="-1510.8745">
		<stop offset="0" style="stop-color:#80CCFF"/>
		<stop offset="1" style="stop-color:#74AEEE"/>
	</radialGradient>
	<path fill="url(#svg2.collar_x5F_r_2_)" id="svg2.collar_x5F_r_8_" d="M49.301,20.69   c0,0-0.287,1.185-1.506,2.221c-1.055,0.897-2.893,1.036-2.893,1.036l1.986,3.108c0,0,1.479-0.818,2.504-1.924   c0.961-1.036,0.686-2.74,0.686-2.74L49.301,20.69z" stroke-width="0.5" stroke="#5491CF"/>
	
		<radialGradient gradientTransform="matrix(1 0 0 -1 0.2002 -1487.2285)" id="svg2.collar_x5F_l_2_" r="4.6426" cx="39.6494" gradientUnits="userSpaceOnUse" cy="-1510.896">
		<stop offset="0" style="stop-color:#80CCFF"/>
		<stop offset="1" style="stop-color:#74AEEE"/>
	</radialGradient>
	<path fill="url(#svg2.collar_x5F_l_2_)" id="svg2.collar_x5F_l_8_" d="M39.536,20.711   c0,0,0.288,1.185,1.506,2.221c1.056,0.896,2.894,1.036,2.894,1.036l-1.987,3.108c0,0-1.479-0.818-2.505-1.925   c-0.961-1.036-0.685-2.74-0.685-2.74L39.536,20.711z" stroke-width="0.5" stroke="#5491CF"/>
	
		<radialGradient gradientTransform="matrix(1 0 0 -1 0.1201 -714.5371)" id="svg2.Knob2_2_" r="0.4846" cx="44.0645" gradientUnits="userSpaceOnUse" cy="-742.6421">
		<stop offset="0" style="stop-color:#80CCFF"/>
		<stop offset="1" style="stop-color:#74AEEE"/>
	</radialGradient>
	<circle fill="url(#svg2.Knob2_2_)" r="0.292" cx="44.35" id="svg2.Knob2_8_" cy="28.127" stroke="#5491CF" stroke-width="0.5"/>
	
		<radialGradient gradientTransform="matrix(1 0 0 -1 0.1201 -714.5371)" id="svg2.Knob1_2_" r="0.4847" cx="44.083" gradientUnits="userSpaceOnUse" cy="-745.7642">
		<stop offset="0" style="stop-color:#80CCFF"/>
		<stop offset="1" style="stop-color:#74AEEE"/>
	</radialGradient>
	<circle fill="url(#svg2.Knob1_2_)" r="0.292" cx="44.369" id="svg2.Knob1_8_" cy="31.25" stroke="#5491CF" stroke-width="0.5"/>
	
		<radialGradient gradientTransform="matrix(1 0 0 -1 0.2002 -1487.2285)" id="svg2.jacket_x5F_body_1_" r="20.459" cx="36.7842" gradientUnits="userSpaceOnUse" cy="-1515.3755">
		<stop offset="0" style="stop-color:#D0D0D0"/>
		<stop offset="1" style="stop-color:#9B9B9B"/>
	</radialGradient>
	
		<path stroke-linecap="round" fill="url(#svg2.jacket_x5F_body_1_)" stroke-linejoin="round" d="   M54.986,25.612c-2.217-2.217-5.111-2.955-5.557-3.059l-2.695,10.572h-4.43L39.686,22.84c-0.145-0.096-0.271-0.196-0.385-0.301   c0,0-2.877,0.293-5.595,3.01c-2.796,2.796-3.233,5.835-3.233,5.835c0,0.97,0.786,1.747,1.76,1.747h24.256   c0.975,0,1.761-0.779,1.761-1.747C58.248,31.384,57.326,27.953,54.986,25.612z" id="svg2.jacket_x5F_body_8_" stroke="#4B4B4B" stroke-width="0.5"/>
	
		<polygon stroke-linecap="round" points="   49.688,21.038 51.305,23.187 50.615,27.835 48.914,28.25 49.547,29.563 47.509,33.126 46.734,33.126  " fill="#9B9B9B" stroke-linejoin="round" id="svg2.jacket_x5F_r_8_" stroke="#4B4B4B" stroke-width="0.5"/>
	
		<polygon stroke-linecap="round" points="   39.354,21.038 37.734,23.187 38.426,27.835 40.127,28.25 39.493,29.563 41.531,33.126 42.307,33.126  " fill="#B2B2B2" stroke-linejoin="round" id="svg2.jacket_x5F_l_8_" stroke="#4B4B4B" stroke-width="0.5"/>
	<path fill="#D54A30" id="svg2.path5135_8_" d="M43.936,27.61c0,0-0.926,1.028-1.041,3.271   c-0.115,2.244,0,2.244,0,2.244h3.273c0,0,0.115,0.031-0.077-2.182c-0.2-2.302-1.194-3.334-1.194-3.334L43.936,27.61L43.936,27.61z" stroke-width="0.5" stroke="#B51A19"/>
	<path fill="#D54A30" id="svg2.path5131_8_" d="M44.377,24.34h0.063l1.275,2.001   c0.258,0.477-0.604,0.898-0.729,1.274l-1.139-0.008c-0.121-0.38-1.129-0.683-0.738-1.292L44.377,24.34z" stroke-width="0.5" stroke="#B51A19"/>
	
		<linearGradient gradientTransform="matrix(1 0 0 -1 0.2002 -1487.2285)" x1="43.6328" x2="44.3621" gradientUnits="userSpaceOnUse" y1="-1527.7417" y2="-1545.2545" id="svg2.neck_x5F_white_4_">
		<stop offset="0.2711" style="stop-color:#FFAB4F"/>
		<stop offset="1" style="stop-color:#FFD28F"/>
	</linearGradient>
	<path fill="url(#svg2.neck_x5F_white_4_)" id="svg2.neck_x5F_white_11_" stroke-width="0.5" d="   M39.639,43.898h9.094v10.115c-0.655,0.187-8.586,0.219-9.094,0.086V43.898z" stroke-miterlimit="10" stroke="#FFAB4F"/>
	
		<linearGradient gradientTransform="matrix(1 0 0 -1 0.2002 -1487.2285)" x1="43.1309" x2="43.7515" gradientUnits="userSpaceOnUse" y1="-1524.2065" y2="-1539.1072" id="svg2.SVGID_3_">
		<stop offset="0.2711" style="stop-color:#FFAB4F"/>
		<stop offset="1" style="stop-color:#FFD28F"/>
	</linearGradient>
	<path fill="url(#svg2.SVGID_3_)" stroke-width="0.5" d="M54.766,50.611   c-2.199-2.196-5.477-2.94-6.033-3.055v-3.658h-9.094c0,0,0.021,3.453,0,3.436c0,0-3.437,0.499-6.152,3.216   c-2.797,2.796-3.235,5.835-3.235,5.835c0,0.971,0.787,1.746,1.763,1.746h24.254c0.975,0,1.762-0.777,1.762-1.746   C58.027,56.384,57.105,52.953,54.766,50.611z" stroke-miterlimit="10" stroke="#ED9135"/>
	
		<radialGradient gradientTransform="matrix(1 0 0 -1 0.2002 -1487.2285)" gradientUnits="userSpaceOnUse" r="11.7114" cx="43.752" id="svg2.face_x5F_white_4_" cy="-1525.0908" fx="41.4673" fy="-1526.3356">
		<stop offset="0" style="stop-color:#FFD28F"/>
		<stop offset="1" style="stop-color:#FFAB4F"/>
	</radialGradient>
	<path fill="url(#svg2.face_x5F_white_4_)" id="svg2.face_x5F_white_11_" stroke-width="0.5" d="   M51.838,36.68c0.043,5.1-3.369,9.26-7.623,9.293c-4.251,0.033-7.732-4.074-7.775-9.173c-0.041-5.1,3.369-9.261,7.623-9.294   C48.314,27.473,51.795,31.579,51.838,36.68z" stroke-miterlimit="10" stroke="#ED9135"/>
	
		<linearGradient gradientTransform="matrix(0.275 0 0 0.2733 -1169.7629 -2324.9595)" x1="4409.1299" x2="4420.9448" gradientUnits="userSpaceOnUse" y1="8613.5469" y2="8660.2725" id="svg2.face_highlight_4_">
		<stop offset="0" style="stop-color:#FFFFFF;stop-opacity:0.24"/>
		<stop offset="1" style="stop-color:#FFFFFF;stop-opacity:0.16"/>
	</linearGradient>
	<path fill="url(#svg2.face_highlight_4_)" id="svg2.face_highlight_11_" d="M43.979,28.166c-3.018,0.023-5.373,2.247-6.394,5.193   c-0.332,0.959-0.147,2.021,0.49,2.813c1.364,1.699,2.864,3.142,4.729,4.044c1.568,0.76,3.768,1.192,5.945,0.624   c1.139-0.297,1.994-1.229,2.188-2.383c0.092-0.548,0.146-1.146,0.144-1.776C51.041,31.977,48.137,28.134,43.979,28.166z"/>
	<path fill="#CC9869" d="M46.107,29.969   c0,0,2.845,1.375,3.845,4.062c1.052,2.826,2.062,4.117,2.095,4c0.938-3.395,0.531-10.718-5.086-10.792   c-10.229-3.832-12.79,5.98-11.947,9.824c0.539,2.457,1.117,3.344,1.971,4.041C36.982,41.104,37.514,33.781,46.107,29.969z" stroke-width="0.5" stroke="#99724F" stroke-linecap="round" stroke-linejoin="round"/>
	
		<linearGradient gradientTransform="matrix(0.9852 0 0 0.9852 -22.6981 -2330.2188)" x1="83.9365" x2="51.7404" gradientUnits="userSpaceOnUse" y1="2419.1064" y2="2419.1064" id="svg2.body_2_">
		<stop offset="0" style="stop-color:#49AD33"/>
		<stop offset="1" style="stop-color:#C2DA92"/>
	</linearGradient>
	<path fill="url(#svg2.body_2_)" id="svg2.body_35_" d="M30.25,56.384c0,0.97,0.787,1.747,1.762,1.747   h24.256c0.974,0,1.76-0.779,1.76-1.747c0,0-0.922-3.431-3.262-5.771c-2.408-2.406-4.123-2.572-4.123-2.572   c-0.723,3.49-4.276,4.393-6.504,4.393c-2.227,0-5.75-0.994-6.059-4.393c0,0-1.878-0.207-4.596,2.51   C30.689,53.346,30.25,56.384,30.25,56.384z" stroke-width="0.5" stroke="#008D33"/>
	
		<radialGradient gradientTransform="matrix(1 0 0 -1 0.2002 -1487.2285)" gradientUnits="userSpaceOnUse" r="5.7236" cx="14.0952" id="svg2.neck_x5F_white_5_" cy="-1534.9302" fx="12.9786" fy="-1535.5386">
		<stop offset="0" style="stop-color:#B38E5D"/>
		<stop offset="1" style="stop-color:#805126"/>
	</radialGradient>
	<path fill="url(#svg2.neck_x5F_white_5_)" id="svg2.neck_x5F_white_2_" stroke-width="0.5" d="   M9.859,43.898h9.094v6.615c-0.656,0.187-8.586,0.219-9.094,0.086V43.898z" stroke-miterlimit="10" stroke="#5B453B"/>
	
		<radialGradient gradientTransform="matrix(1 0 0 -1 0.2002 -1487.2285)" gradientUnits="userSpaceOnUse" r="15.5272" cx="13.8213" id="svg2.SVGID_4_" cy="-1539.1084" fx="10.7923" fy="-1540.7589">
		<stop offset="0" style="stop-color:#B38E5D"/>
		<stop offset="1" style="stop-color:#805126"/>
	</radialGradient>
	<path fill="url(#svg2.SVGID_4_)" stroke-width="0.5" d="M24.986,50.611   c-2.199-2.196-5.477-2.94-6.033-3.055v-3.658H9.859c0,0,0.02,3.453,0,3.436c0,0-3.437,0.499-6.153,3.216   c-2.796,2.796-3.235,5.835-3.235,5.835c0,0.971,0.787,1.746,1.762,1.746h24.255c0.974,0,1.761-0.777,1.761-1.746   C28.248,56.384,27.326,52.953,24.986,50.611z" stroke-miterlimit="10" stroke="#5B453B"/>
	
		<radialGradient gradientTransform="matrix(1 0 0 -1 0.2002 -1487.2285)" gradientUnits="userSpaceOnUse" r="11.7123" cx="13.9722" id="svg2.face_x5F_white_5_" cy="-1525.0908" fx="11.6873" fy="-1526.3357">
		<stop offset="0" style="stop-color:#B38E5D"/>
		<stop offset="1" style="stop-color:#805126"/>
	</radialGradient>
	<path fill="url(#svg2.face_x5F_white_5_)" id="svg2.face_x5F_white_2_" stroke-width="0.5" d="   M22.059,36.68c0.043,5.1-3.369,9.26-7.623,9.293c-4.251,0.033-7.732-4.074-7.775-9.173c-0.042-5.1,3.369-9.261,7.622-9.294   C18.536,27.473,22.016,31.579,22.059,36.68z" stroke-miterlimit="10" stroke="#5B453B"/>
	
		<linearGradient gradientTransform="matrix(0.275 0 0 0.2733 -1169.7629 -2324.9595)" x1="4300.8428" x2="4312.6582" gradientUnits="userSpaceOnUse" y1="8613.5449" y2="8660.2734" id="svg2.face_highlight_5_">
		<stop offset="0" style="stop-color:#FFFFFF;stop-opacity:0.42"/>
		<stop offset="1" style="stop-color:#FFFFFF;stop-opacity:0.12"/>
	</linearGradient>
	<path fill="url(#svg2.face_highlight_5_)" id="svg2.face_highlight_2_" d="M14.2,28.166c-3.018,0.023-5.374,2.247-6.394,5.193   c-0.332,0.959-0.147,2.021,0.49,2.813c1.364,1.699,2.864,3.142,4.73,4.044c1.568,0.76,3.767,1.192,5.945,0.624   c1.139-0.297,1.994-1.229,2.188-2.383c0.092-0.548,0.146-1.146,0.143-1.776C21.262,31.977,18.357,28.134,14.2,28.166z"/>
	
		<path stroke-linecap="round" fill="#4B4B4B" stroke-linejoin="round" d="   M10.359,31.625c1.709,2.166,4.667,3.459,4.667,3.459l-0.708-1.75c0,0,3.547,2.346,4.041,2.166c0.484-0.1-0.541-1.902-0.541-1.902   s1.568,0.896,2.428,1.983c0.9,1.14,2.143,1.752,2.143,1.752s1.346-10.974-8.523-10.961C4.359,26.354,6.25,38.839,6.25,38.839   L7.568,33.5c0,0,0.457,2.879,0.699,2.438C9.151,32.605,9.651,30.75,10.359,31.625z" id="svg2.Hair_Young_Black_1_" stroke="#000000" stroke-width="0.5"/>
	
		<radialGradient gradientTransform="matrix(1 0 0 -1 0.2002 -1487.2285)" id="svg2.collar_x5F_body_3_" r="16.2003" cx="7.6602" gradientUnits="userSpaceOnUse" cy="-1540.813">
		<stop offset="0" style="stop-color:#B0E8FF"/>
		<stop offset="1" style="stop-color:#74AEEE"/>
	</radialGradient>
	<path fill="url(#svg2.collar_x5F_body_3_)" id="svg2.collar_x5F_body_1_" d="M0.471,56.384   c0,0.97,0.787,1.747,1.762,1.747h24.255c0.974,0,1.761-0.779,1.761-1.747c0,0-0.922-3.431-3.262-5.771   c-2.408-2.406-5.623-3.072-5.623-3.072c-0.885,0.827-2.805,1.4-5.031,1.4s-4.146-0.573-5.031-1.4c0,0-2.878,0.293-5.595,3.01   C0.91,53.346,0.471,56.384,0.471,56.384z" stroke-width="0.5" stroke="#5491CF"/>
	
		<radialGradient gradientTransform="matrix(1 0 0 -1 0.2002 -1487.2285)" id="svg2.collar_x5F_r_3_" r="4.6412" cx="15.8306" gradientUnits="userSpaceOnUse" cy="-1535.874">
		<stop offset="0" style="stop-color:#80CCFF"/>
		<stop offset="1" style="stop-color:#74AEEE"/>
	</radialGradient>
	<path fill="url(#svg2.collar_x5F_r_3_)" id="svg2.collar_x5F_r_1_" d="M19.301,45.689   c0,0-0.287,1.186-1.506,2.222c-1.055,0.897-2.893,1.036-2.893,1.036l1.986,3.107c0,0,1.479-0.818,2.504-1.924   c0.961-1.035,0.686-2.74,0.686-2.74L19.301,45.689z" stroke-width="0.5" stroke="#5491CF"/>
	
		<radialGradient gradientTransform="matrix(1 0 0 -1 0.2002 -1487.2285)" id="svg2.collar_x5F_l_3_" r="4.6422" cx="9.6494" gradientUnits="userSpaceOnUse" cy="-1535.896">
		<stop offset="0" style="stop-color:#80CCFF"/>
		<stop offset="1" style="stop-color:#74AEEE"/>
	</radialGradient>
	<path fill="url(#svg2.collar_x5F_l_3_)" id="svg2.collar_x5F_l_1_" d="M9.536,45.711   c0,0,0.288,1.186,1.506,2.221c1.055,0.896,2.893,1.037,2.893,1.037l-1.987,3.107c0,0-1.479-0.818-2.504-1.926   c-0.961-1.035-0.685-2.739-0.685-2.739L9.536,45.711z" stroke-width="0.5" stroke="#5491CF"/>
	
		<radialGradient gradientTransform="matrix(1 0 0 -1 0.1201 -714.5371)" id="svg2.Knob2_3_" r="0.4842" cx="14.0645" gradientUnits="userSpaceOnUse" cy="-767.6421">
		<stop offset="0" style="stop-color:#80CCFF"/>
		<stop offset="1" style="stop-color:#74AEEE"/>
	</radialGradient>
	<circle fill="url(#svg2.Knob2_3_)" r="0.292" cx="14.35" id="svg2.Knob2_1_" cy="53.127" stroke="#5491CF" stroke-width="0.5"/>
	
		<radialGradient gradientTransform="matrix(1 0 0 -1 0.1201 -714.5371)" id="svg2.Knob1_3_" r="0.4844" cx="14.0835" gradientUnits="userSpaceOnUse" cy="-770.7642">
		<stop offset="0" style="stop-color:#80CCFF"/>
		<stop offset="1" style="stop-color:#74AEEE"/>
	</radialGradient>
	<circle fill="url(#svg2.Knob1_3_)" r="0.292" cx="14.369" id="svg2.Knob1_1_" cy="56.25" stroke="#5491CF" stroke-width="0.5"/>
	<path fill="#D54A30" id="svg2.path5135_1_" d="M13.935,52.609c0,0-0.925,1.029-1.04,3.271   c-0.115,2.244,0,2.244,0,2.244h3.273c0,0,0.115,0.031-0.077-2.182c-0.2-2.303-1.194-3.334-1.194-3.334H13.935L13.935,52.609z" stroke-width="0.5" stroke="#B51A19"/>
	<path fill="#D54A30" id="svg2.path5131_1_" d="M14.377,49.34h0.062l1.276,2.001   c0.258,0.478-0.604,0.897-0.728,1.274l-1.14-0.008c-0.121-0.381-1.128-0.684-0.738-1.293L14.377,49.34z" stroke-width="0.5" stroke="#B51A19"/>
</g>
</svg>
      </g>
    </g>
    <g text-rendering="geometricPrecision" stroke-miterlimit="1.45" shape-rendering="geometricPrecision" font-family="sans-serif" transform="matrix(1,0,0,1,-631,-247)" stroke-linecap="butt">
      <text x="1409.0463" xml:space="preserve" y="484.7856" clip-path="url(#clipPath2)" stroke="none">Data consumer</text>
    </g>
    <g fill="url(#linearGradient3)" text-rendering="geometricPrecision" shape-rendering="geometricPrecision" transform="matrix(1,0,0,1,-631,-247)" stroke="url(#linearGradient3)">
      <path d="M1006.9077 438.4565 Q1011.9077 423.4565 1026.9077 418.4565 L1119.9077 418.4565 Q1129.9077 438.4565 1119.9077 458.4565 L1026.9077 458.4565 Q1011.9077 453.4565 1006.9077 438.4565" stroke="none" clip-path="url(#clipPath2)"/>
    </g>
    <g text-rendering="geometricPrecision" stroke-miterlimit="1.45" shape-rendering="geometricPrecision" transform="matrix(1,0,0,1,-631,-247)" stroke-linecap="butt">
      <path fill="none" d="M1006.9077 438.4565 Q1011.9077 423.4565 1026.9077 418.4565 L1119.9077 418.4565 Q1129.9077 438.4565 1119.9077 458.4565 L1026.9077 458.4565 Q1011.9077 453.4565 1006.9077 438.4565" clip-path="url(#clipPath2)"/>
      <text x="1023.187" xml:space="preserve" y="442.6107" clip-path="url(#clipPath2)" font-family="sans-serif" stroke="none">SPARQL proxy</text>
    </g>
    <g text-rendering="geometricPrecision" stroke-miterlimit="1.45" stroke-dasharray="6,2" shape-rendering="geometricPrecision" transform="matrix(1,0,0,1,-631,-247)" stroke-linecap="butt">
      <rect x="1242.5543" y="513.9831" clip-path="url(#clipPath2)" fill="none" width="101" rx="4" ry="4" height="30"/>
      <text x="1247.2399" y="533.1373" clip-path="url(#clipPath2)" font-family="sans-serif" stroke-dasharray="none" stroke="none" xml:space="preserve">SPARQL (HTTP)</text>
    </g>
    <g fill="url(#linearGradient4)" text-rendering="geometricPrecision" shape-rendering="geometricPrecision" transform="matrix(1,0,0,1,-631,-247)" stroke="url(#linearGradient4)">
      <path d="M677.233 417.2985 C679.903 403.1931 763.563 403.1931 766.233 417.2985 L766.233 459.6144 C763.563 473.7198 679.903 473.7198 677.233 459.6144 Z" stroke="none" clip-path="url(#clipPath2)"/>
    </g>
    <g text-rendering="geometricPrecision" stroke-miterlimit="1.45" shape-rendering="geometricPrecision" transform="matrix(1,0,0,1,-631,-247)" stroke-linecap="butt">
      <path fill="none" d="M677.233 417.2985 C679.903 403.1931 763.563 403.1931 766.233 417.2985 L766.233 459.6144 C763.563 473.7198 679.903 473.7198 677.233 459.6144 Z" clip-path="url(#clipPath2)"/>
      <path fill="none" d="M766.233 417.2985 C763.563 431.4038 679.903 431.4038 677.233 417.2985" clip-path="url(#clipPath2)"/>
      <text x="694.5923" xml:space="preserve" y="442.6107" clip-path="url(#clipPath2)" font-family="sans-serif" stroke="none">GraphDB</text>
    </g>
    <g fill="url(#linearGradient5)" text-rendering="geometricPrecision" shape-rendering="geometricPrecision" transform="matrix(1,0,0,1,-631,-247)" stroke="url(#linearGradient5)">
      <path d="M687.9839 311.595 C690.0089 299.9188 753.457 299.9188 755.4819 311.595 L755.4819 346.6236 C753.457 358.2998 690.0089 358.2998 687.9839 346.6236 Z" stroke="none" clip-path="url(#clipPath2)"/>
    </g>
    <g text-rendering="geometricPrecision" stroke-miterlimit="1.45" shape-rendering="geometricPrecision" transform="matrix(1,0,0,1,-631,-247)" stroke-linecap="butt">
      <path fill="none" d="M687.9839 311.595 C690.0089 299.9188 753.457 299.9188 755.4819 311.595 L755.4819 346.6236 C753.457 358.2998 690.0089 358.2998 687.9839 346.6236 Z" clip-path="url(#clipPath2)"/>
      <path fill="none" d="M755.4819 311.595 C753.457 323.2712 690.0089 323.2712 687.9839 311.595" clip-path="url(#clipPath2)"/>
      <text x="705.0162" xml:space="preserve" y="333.2636" clip-path="url(#clipPath2)" font-family="sans-serif" stroke="none">CKAN</text>
    </g>
    <g font-size="9px" stroke-linecap="butt" transform="matrix(1,0,0,1,-631,-247)" text-rendering="geometricPrecision" font-family="sans-serif" shape-rendering="geometricPrecision" stroke-miterlimit="1.45">
      <text x="716.8051" xml:space="preserve" y="277.5694" clip-path="url(#clipPath2)" stroke="none">UM server</text>
    </g>
    <g text-rendering="geometricPrecision" shape-rendering="geometricPrecision" transform="matrix(1,0,0,1,794.6697,59.1403)">
      <g clip-path="url(#clipPath5)">
        <svg xml:space="preserve" opacity="1" writing-mode="lr-tb" stop-color="rgb(0, 0, 0)" shape-rendering="auto" glyph-orientation-horizontal="0deg" color-profile="auto" lighting-color="rgb(255, 255, 255)" color="rgb(0, 0, 0)" font-weight="400" alignment-baseline="auto" font-style="normal" version="1.1" color-interpolation-filters="linearrgb" text-anchor="start" stroke-linecap="butt" color-interpolation="srgb" font-variant="normal" word-spacing="normal" fill-opacity="1" text-rendering="auto" clip-path="none" text-decoration="none" letter-spacing="normal" viewBox="-0.064 -0.075 68 46" glyph-orientation-vertical="auto" display="inline" font-size-adjust="none" overflow="hidden" fill="rgb(0, 0, 0)" font-stretch="normal" stroke-dasharray="none" stroke-miterlimit="4" stop-opacity="1" color-rendering="auto" font-size="12" pointer-events="visiblepainted" mask="none" direction="ltr" baseline-shift="baseline" enable-background="new -0.064 -0.075 68 46" fill-rule="nonzero" image-rendering="auto" stroke-dashoffset="0" width="68px" marker-end="none" clip="auto" cursor="auto" stroke="none" filter="none" visibility="visible" kerning="auto" stroke-width="1" font-family="&quot;Arial&quot;,&quot;Helvetica&quot;,sans-serif" flood-opacity="1" clip-rule="nonzero" src="none" height="46px" unicode-bidi="normal" stroke-linejoin="miter" stroke-opacity="1" flood-color="rgb(0, 0, 0)" dominant-baseline="auto" marker-start="none" x="0px" marker-mid="none" y="0px">
<defs>
</defs>
<radialGradient gradientTransform="matrix(1.15 0 0 1 -526.6598 -1982.4023)" id="svg3.SVGID_1_" r="21.6001" cx="478.8413" gradientUnits="userSpaceOnUse" cy="1991.2729">
	<stop offset="0" style="stop-color:#F2F2F2"/>
	<stop offset="1" style="stop-color:#8D8D8D"/>
</radialGradient>
<path fill="url(#svg3.SVGID_1_)" d="M10.263,1.903c0-0.987,0.807-1.794,1.794-1.794h43.279c0.986,0,1.795,0.807,1.795,1.794v26.978  c0,0.987-0.809,1.794-1.795,1.794h-43.28c-0.987,0-1.794-0.807-1.794-1.794L10.263,1.903L10.263,1.903z"/>
<path stroke-linecap="round" display="none" fill="none" stroke-linejoin="round" d="  M10.263,1.903c0-0.987,0.807-1.794,1.794-1.794h43.279c0.986,0,1.795,0.807,1.795,1.794v26.978c0,0.987-0.809,1.794-1.795,1.794  h-43.28c-0.987,0-1.794-0.807-1.794-1.794L10.263,1.903L10.263,1.903z" stroke="#3C89C9" stroke-width="0.2185" stroke-miterlimit="10"/>
<radialGradient gradientTransform="matrix(1.1935 0 0 1 -509.6731 -1982.4023)" gradientUnits="userSpaceOnUse" r="47.8462" cx="455.894" id="svg3.SVGID_2_" cy="1983.9624" fx="493.5344" fy="1977.5143">
	<stop offset="0" style="stop-color:#4D4D4D"/>
	<stop offset="1" style="stop-color:#999999"/>
</radialGradient>
<path fill="url(#svg3.SVGID_2_)" d="M11.18,2.819c0-0.987,0.807-1.794,1.794-1.794h41.649c0.986,0,1.795,0.807,1.795,1.794v24.943  c0,0.985-0.809,1.794-1.795,1.794H12.974c-0.987,0-1.794-0.809-1.794-1.794V2.819z"/>
<radialGradient gradientTransform="matrix(1.1923 0 0 1 -510.1314 -1982.4023)" id="svg3.SVGID_3_" r="30.6699" cx="456.8843" gradientUnits="userSpaceOnUse" cy="1984.0386">
	<stop offset="0" style="stop-color:#9CD7FF"/>
	<stop offset="1" style="stop-color:#3C89C9"/>
</radialGradient>
<path fill="url(#svg3.SVGID_3_)" d="M11.689,3.228c0-0.987,0.807-1.794,1.794-1.794h40.633c0.986,0,1.795,0.807,1.795,1.794v24.126  c0,0.986-0.809,1.794-1.795,1.794H13.483c-0.987,0-1.794-0.809-1.794-1.794V3.228z"/>
<path fill="#F2F2F2" opacity="0.24" d="M11.689,21.472V3.228c0-0.987,0.807-1.794,1.794-1.794h40.633  c0.986,0,1.795,0.807,1.795,1.794v9.454c0,0.987-10.518,5.21-18.256,6.795C29.917,21.062,11.689,21.472,11.689,21.472z"/>
<linearGradient gradientTransform="matrix(1 0 0 -1 -97.6001 -165.0498)" x1="131.3501" x2="131.3501" gradientUnits="userSpaceOnUse" y1="-212.2612" y2="-170.6274" id="svg3.SVGID_4_">
	<stop offset="0" style="stop-color:#4D4D4D"/>
	<stop offset="0.0667" style="stop-color:#717171"/>
	<stop offset="0.069" style="stop-color:#757575"/>
	<stop offset="0.0831" style="stop-color:#8C8C8C"/>
	<stop offset="0.0996" style="stop-color:#9E9E9E"/>
	<stop offset="0.1196" style="stop-color:#AAAAAA"/>
	<stop offset="0.1466" style="stop-color:#B1B1B1"/>
	<stop offset="0.2121" style="stop-color:#B3B3B3"/>
	<stop offset="1" style="stop-color:#C5C5C5"/>
</linearGradient>
<path fill="url(#svg3.SVGID_4_)" d="M58.385,32.234c-0.689-0.856-2.154-1.559-3.254-1.559H12c-1.1,0-2.552,0.711-3.227,1.579  l-7.546,9.717C0,43.55,0.042,43.785,0,44.55v0.125c0.056,0.393,0.311,1.002,1.248,1.002h64.75c0.75,0.002,1.5-0.252,1.5-1.002V44.55  c0-0.813,0-0.813-1.254-2.559L58.385,32.234z"/>
<path fill="#F2F2F2" d="M58.385,32.234c-0.689-0.856-2.154-1.559-3.254-1.559H12  c-1.1,0-2.552,0.711-3.227,1.579l-7.055,9.085l58.098-7.33L58.385,32.234z" enable-background="new    " opacity="0.23"/>
<path fill="#6E6E6E" d="M59.75,37.205c0.344,0.431,0.172,0.783-0.377,0.783H8.249c-0.55,0-0.742-0.369-0.427-0.819l2.786-3.986  c0.315-0.45,1.023-0.819,1.573-0.819h42.729c0.551,0,1.279,0.354,1.623,0.783L59.75,37.205z"/>
<path fill="#6E6E6E" d="M40.43,41.906c0.072,0.217-0.057,0.395-0.285,0.395H26.727c-0.229,0-0.364-0.18-0.3-0.398l0.822-2.826  c0.064-0.221,0.303-0.399,0.532-0.399h11.167c0.229,0,0.475,0.179,0.547,0.396L40.43,41.906z"/>
</svg>
      </g>
    </g>
    <g text-rendering="geometricPrecision" stroke-miterlimit="1.45" shape-rendering="geometricPrecision" font-family="sans-serif" transform="matrix(1,0,0,1,-631,-247)" stroke-linecap="butt">
      <text x="1413.5452" xml:space="preserve" y="369.033" clip-path="url(#clipPath2)" stroke="none">Data consumer</text>
      <path fill="none" d="M1425.7479 438.4565 L1363.5308 438.4565" clip-path="url(#clipPath2)"/>
      <path d="M1355.5308 438.4565 L1367.5308 443.4565 L1364.5308 438.4565 L1367.5308 433.4565 Z" clip-path="url(#clipPath2)" stroke="none"/>
      <path fill="none" d="M1427.1089 409.2776 L1356.0679 334.9135" clip-path="url(#clipPath2)"/>
      <path d="M1350.5417 329.1288 L1355.2156 341.2596 L1356.7587 335.6366 L1362.4463 334.352 Z" clip-path="url(#clipPath2)" stroke="none"/>
      <path fill="none" d="M1186.5258 438.4565 L1132.8916 438.4565" clip-path="url(#clipPath2)"/>
      <path d="M1124.8916 438.4565 L1136.8916 443.4565 L1133.8916 438.4565 L1136.8916 433.4565 Z" clip-path="url(#clipPath2)" stroke="none"/>
      <path fill="none" d="M1181.5208 329.136 L1092.8617 412.9695" clip-path="url(#clipPath2)"/>
      <path d="M1087.0488 418.4659 L1099.2034 413.8543 L1093.5883 412.2825 L1092.3329 406.5883 Z" clip-path="url(#clipPath2)" stroke="none"/>
      <path fill="none" d="M1006.9128 438.4565 L918.4597 438.4565" clip-path="url(#clipPath2)"/>
      <path d="M910.4597 438.4565 L922.4597 443.4565 L919.4597 438.4565 L922.4597 433.4565 Z" clip-path="url(#clipPath2)" stroke="none"/>
      <path fill="none" d="M1431.3031 528.983 L1351.5813 528.983" clip-path="url(#clipPath2)"/>
      <path d="M1343.5813 528.983 L1355.5813 533.983 L1352.5813 528.983 L1355.5813 523.983 Z" clip-path="url(#clipPath2)" stroke="none"/>
      <path fill="none" d="M1242.5255 528.9609 L1112.0505 462.1015" clip-path="url(#clipPath2)"/>
      <path d="M1104.9309 458.4532 L1113.3302 468.3755 L1112.9406 462.5576 L1117.8906 459.4759 Z" clip-path="url(#clipPath2)" stroke="none"/>
      <path fill="none" d="M809.4608 438.4565 L774.2394 438.4565" clip-path="url(#clipPath2)"/>
      <path d="M766.2394 438.4565 L778.2394 443.4565 L775.2394 438.4565 L778.2394 433.4565 Z" clip-path="url(#clipPath2)" stroke="none"/>
      <path fill="none" d="M1181.5535 329.1093 L763.4954 329.1093" clip-path="url(#clipPath2)"/>
      <path d="M755.4954 329.1093 L767.4954 334.1093 L764.4954 329.1093 L767.4954 324.1093 Z" clip-path="url(#clipPath2)" stroke="none"/>
      <path fill="none" d="M721.733 363.4049 L721.733 398.7038" clip-path="url(#clipPath2)"/>
      <path d="M721.733 355.4049 L716.733 367.4049 L721.733 364.4049 L726.733 367.4049 Z" clip-path="url(#clipPath2)" stroke="none"/>
      <path d="M721.733 406.7038 L726.733 394.7038 L721.733 397.7038 L716.733 394.7038 Z" clip-path="url(#clipPath2)" stroke="none"/>
      <text x="675.1539" xml:space="preserve" y="384.9008" clip-path="url(#clipPath2)" stroke="none">DCAT</text>
      <path fill="none" d="M1435.8214 329.1093 L1358.5557 329.1093" clip-path="url(#clipPath2)"/>
      <path d="M1350.5557 329.1093 L1362.5557 334.1093 L1359.5557 329.1093 L1362.5557 324.1093 Z" clip-path="url(#clipPath2)" stroke="none"/>
    </g>
  </g>
</svg>
