<?xml version="1.0" encoding="UTF-8"?><svg xmlns="http://www.w3.org/2000/svg" xmlns:xlink="http://www.w3.org/1999/xlink" fill-opacity="1" color-rendering="auto" color-interpolation="auto" text-rendering="auto" stroke="black" stroke-linecap="square" width="792" stroke-miterlimit="10" shape-rendering="auto" stroke-opacity="1" fill="black" stroke-dasharray="none" font-weight="normal" stroke-width="1" height="335" font-family="'Dialog'" font-style="normal" stroke-linejoin="miter" font-size="12px" stroke-dashoffset="0" image-rendering="auto">
  <!--Generated by ySVG 2.6-->
  <defs id="genericDefs"/>
  <g>
    <g fill="white" text-rendering="geometricPrecision" shape-rendering="geometricPrecision" transform="translate(-231,2)" stroke="white">
      <rect x="231" width="792" height="335" y="-2" clip-path="url(#clipPath2)" stroke="none"/>
    </g>
    <g fill="silver" text-rendering="geometricPrecision" shape-rendering="geometricPrecision" transform="matrix(1,0,0,1,-231,2)" stroke="silver">
      <rect x="246" y="13" clip-path="url(#clipPath2)" width="566" rx="4" ry="4" height="305" stroke="none"/>
    </g>
    <g text-rendering="geometricPrecision" stroke-miterlimit="1.45" shape-rendering="geometricPrecision" transform="matrix(1,0,0,1,-231,2)" stroke-linecap="butt">
      <rect x="246" y="13" clip-path="url(#clipPath2)" fill="none" width="566" rx="4" ry="4" height="305"/>
    </g>
    <g fill="url(#linearGradient1)" text-rendering="geometricPrecision" shape-rendering="geometricPrecision" transform="matrix(1,0,0,1,-231,2)" stroke="url(#linearGradient1)">
      <path d="M280 252 L360 252 L360 287 Q340 277 320 287 Q300 297 280 287 Z" stroke="none" clip-path="url(#clipPath2)"/>
    </g>
    <g text-rendering="geometricPrecision" stroke-miterlimit="1.45" shape-rendering="geometricPrecision" transform="matrix(1,0,0,1,-231,2)" stroke-linecap="butt">
      <path fill="none" d="M280 252 L360 252 L360 287 Q340 277 320 287 Q300 297 280 287 Z" clip-path="url(#clipPath2)"/>
      <text x="307.8975" xml:space="preserve" y="276.1543" clip-path="url(#clipPath2)" font-family="sans-serif" stroke="none">CSV</text>
    </g>
    <g fill="url(#linearGradient2)" text-rendering="geometricPrecision" shape-rendering="geometricPrecision" transform="matrix(1,0,0,1,-231,2)" stroke="url(#linearGradient2)">
      <path d="M444 124.4 C448.47 104 588.53 104 593 124.4 L593 185.6 C588.53 206 448.47 206 444 185.6 Z" stroke="none" clip-path="url(#clipPath2)"/>
    </g>
    <g text-rendering="geometricPrecision" stroke-miterlimit="1.45" shape-rendering="geometricPrecision" transform="matrix(1,0,0,1,-231,2)" stroke-linecap="butt">
      <path fill="none" d="M444 124.4 C448.47 104 588.53 104 593 124.4 L593 185.6 C588.53 206 448.47 206 444 185.6 Z" clip-path="url(#clipPath2)"/>
      <path fill="none" d="M593 124.4 C588.53 144.8 448.47 144.8 444 124.4" clip-path="url(#clipPath2)"/>
      <text x="484.6357" xml:space="preserve" y="159.1543" clip-path="url(#clipPath2)" font-family="sans-serif" stroke="none">Blazegraph</text>
    </g>
    <g fill="url(#linearGradient3)" text-rendering="geometricPrecision" shape-rendering="geometricPrecision" transform="matrix(1,0,0,1,-231,2)" stroke="url(#linearGradient3)">
      <path d="M280 135 L360 135 L360 170 Q340 160 320 170 Q300 180 280 170 Z" stroke="none" clip-path="url(#clipPath2)"/>
    </g>
    <g text-rendering="geometricPrecision" stroke-miterlimit="1.45" shape-rendering="geometricPrecision" transform="matrix(1,0,0,1,-231,2)" stroke-linecap="butt">
      <path fill="none" d="M280 135 L360 135 L360 170 Q340 160 320 170 Q300 180 280 170 Z" clip-path="url(#clipPath2)"/>
      <text x="310.7891" xml:space="preserve" y="159.1543" clip-path="url(#clipPath2)" font-family="sans-serif" stroke="none">NQ</text>
    </g>
    <g fill="url(#linearGradient4)" text-rendering="geometricPrecision" shape-rendering="geometricPrecision" transform="matrix(1,0,0,1,-231,2)" stroke="url(#linearGradient4)">
      <path d="M628 52 L698 52 Q708 72 698 92 L628 92 Q618 72 628 52 Z" stroke="none" clip-path="url(#clipPath2)"/>
    </g>
    <g text-rendering="geometricPrecision" stroke-miterlimit="1.45" shape-rendering="geometricPrecision" transform="matrix(1,0,0,1,-231,2)" stroke-linecap="butt">
      <path fill="none" d="M628 52 L698 52 Q708 72 698 92 L628 92 Q618 72 628 52 Z" clip-path="url(#clipPath2)"/>
      <path fill="none" d="M698 52 Q688 72 698 92" clip-path="url(#clipPath2)"/>
      <text x="644.4111" xml:space="preserve" y="76.1543" clip-path="url(#clipPath2)" font-family="sans-serif" stroke="none">Pubby</text>
    </g>
    <g fill="url(#linearGradient5)" text-rendering="geometricPrecision" shape-rendering="geometricPrecision" transform="matrix(1,0,0,1,-231,2)" stroke="url(#linearGradient5)">
      <path d="M628 252 L698 252 Q708 272 698 292 L628 292 Q618 272 628 252 Z" stroke="none" clip-path="url(#clipPath2)"/>
    </g>
    <g text-rendering="geometricPrecision" stroke-miterlimit="1.45" shape-rendering="geometricPrecision" transform="matrix(1,0,0,1,-231,2)" stroke-linecap="butt">
      <path fill="none" d="M628 252 L698 252 Q708 272 698 292 L628 292 Q618 272 628 252 Z" clip-path="url(#clipPath2)"/>
      <path fill="none" d="M698 252 Q688 272 698 292" clip-path="url(#clipPath2)"/>
      <text x="640.6172" xml:space="preserve" y="276.1543" clip-path="url(#clipPath2)" font-family="sans-serif" stroke="none">Apache</text>
    </g>
    <g text-rendering="geometricPrecision" shape-rendering="geometricPrecision" transform="matrix(1,0,0,1.0284,720.3898,200.4715)">
      <g clip-path="url(#clipPath3)">
        <svg xml:space="preserve" opacity="1" writing-mode="lr-tb" stop-color="rgb(0, 0, 0)" shape-rendering="auto" glyph-orientation-horizontal="0deg" color-profile="auto" lighting-color="rgb(255, 255, 255)" color="rgb(0, 0, 0)" font-weight="400" alignment-baseline="auto" font-style="normal" version="1.1" color-interpolation-filters="linearrgb" text-anchor="start" stroke-linecap="butt" color-interpolation="srgb" font-variant="normal" word-spacing="normal" fill-opacity="1" text-rendering="auto" clip-path="none" text-decoration="none" letter-spacing="normal" viewBox="0 0 57 65" glyph-orientation-vertical="auto" display="inline" font-size-adjust="none" overflow="hidden" fill="rgb(0, 0, 0)" font-stretch="normal" stroke-dasharray="none" id="svg1.Ebene_1" stroke-miterlimit="4" stop-opacity="1" color-rendering="auto" font-size="12" pointer-events="visiblepainted" mask="none" direction="ltr" baseline-shift="baseline" enable-background="new 0 0 57 65" fill-rule="nonzero" image-rendering="auto" stroke-dashoffset="0" width="57px" marker-end="none" clip="auto" cursor="auto" stroke="none" filter="none" visibility="visible" kerning="auto" stroke-width="1" font-family="&quot;Arial&quot;,&quot;Helvetica&quot;,sans-serif" flood-opacity="1" clip-rule="nonzero" src="none" height="65px" unicode-bidi="normal" stroke-linejoin="miter" stroke-opacity="1" flood-color="rgb(0, 0, 0)" dominant-baseline="auto" marker-start="none" x="0px" marker-mid="none" y="0px">
<g>
	<polygon fill="#353535" points="44.675,45.684 13.412,50.074    12.502,27.118 43.718,27.745  " stroke="#353535" stroke-linecap="round" stroke-linejoin="round"/>
	
		<radialGradient gradientTransform="matrix(1 0 0 1 0.3203 -3091.7656)" gradientUnits="userSpaceOnUse" r="31.054" cx="27.2832" id="svg1.SVGID_1_" cy="3145.5264" fx="21.2252" fy="3142.2256">
		<stop offset="0" style="stop-color:#B38E5D"/>
		<stop offset="1" style="stop-color:#805126"/>
	</radialGradient>
	<path fill="url(#svg1.SVGID_1_)" d="M49.529,51.225c-4.396-4.396-10.951-5.884-12.063-6.109   V37.8H19.278c0,0,0.038,6.903,0,6.868c0,0-6.874,0.997-12.308,6.432C1.378,56.691,0.5,62.77,0.5,62.77   c0,1.938,1.575,3.492,3.523,3.492h48.51c1.947,0,3.521-1.558,3.521-3.492C56.055,62.768,54.211,55.906,49.529,51.225z" stroke-miterlimit="10" stroke="#5B453B"/>
	
		<radialGradient gradientTransform="matrix(1 0 0 1 0.3203 -3091.7656)" gradientUnits="userSpaceOnUse" r="23.425" cx="27.5835" id="svg1.face_x5F_white_1_" cy="3117.4922" fx="23.0139" fy="3115.0024">
		<stop offset="0" style="stop-color:#B38E5D"/>
		<stop offset="1" style="stop-color:#805126"/>
	</radialGradient>
	<path fill="url(#svg1.face_x5F_white_1_)" id="svg1.face_x5F_white_2_" d="M43.676,23.357   c0.086,10.2-6.738,18.52-15.25,18.586c-8.5,0.068-15.464-8.146-15.55-18.344C12.794,13.4,19.618,5.079,28.123,5.012   C36.627,4.945,43.59,13.158,43.676,23.357z" stroke-miterlimit="10" stroke="#5B453B"/>
	
		<linearGradient gradientTransform="matrix(0.275 0 0 -0.2733 -1752.8849 -3351.7349)" x1="6466.8389" x2="6490.4683" gradientUnits="userSpaceOnUse" y1="-12294.1094" y2="-12387.5586" id="svg1.face_highlight_1_">
		<stop offset="0" style="stop-color:#FFFFFF;stop-opacity:0.42"/>
		<stop offset="1" style="stop-color:#FFFFFF;stop-opacity:0.12"/>
	</linearGradient>
	<path fill="url(#svg1.face_highlight_1_)" id="svg1.face_highlight_2_" d="M27.958,6.333c-6.035,0.047-10.747,4.493-12.787,10.386   c-0.664,1.919-0.294,4.043,0.98,5.629c2.73,3.398,5.729,6.283,9.461,8.088c3.137,1.518,7.535,2.385,11.893,1.247   c2.274-0.592,3.988-2.459,4.375-4.766c0.187-1.094,0.293-2.289,0.283-3.553C42.083,13.952,36.271,6.268,27.958,6.333z"/>
	<path fill="#5C5C5C" d="M17.597,43.835   c-0.413-3.019-0.613-5.013-0.789-7.864c-0.574-9.349,2.886-17.721,2.886-17.721l0.882-2.078l0.94,2.419l1.872-4.956l-0.049,4.553   l1.311-0.749l0.701-1.653L25.715,18l1.055-0.988l2.13-0.729L29.84,17l0.479-2.375l0.834,2.554l1.125-1.024l1.68-0.214l1.07,1.372   l-0.243-4.246l1.883,3.967L37.611,17c0,0,6.029,9.948,3.75,28.426c2.154,0.76,4.479,2.688,6.881,4.648   c0.001-0.002,0.011-0.012,0.011-0.012L44.111,19.38C43.079,12.873,38.752,2.599,28.73,2.648   C5.153,2.568,13.025,42.055,8.945,49.334c-0.007,0.014-0.012,0.025-0.02,0.039C12.292,46.729,15.652,44.346,17.597,43.835z" stroke="#353535" stroke-linecap="round" stroke-linejoin="round"/>
	
		<radialGradient gradientTransform="matrix(0.9852 0 0 -0.9852 -34.4844 -3033.9702)" id="svg1.body_1_" r="32.8445" cx="50.5117" gradientUnits="userSpaceOnUse" cy="-3134.7334">
		<stop offset="0" style="stop-color:#FFC373"/>
		<stop offset="1" style="stop-color:#FFB448"/>
	</radialGradient>
	<path fill="url(#svg1.body_1_)" d="M0.5,62.768c0,1.938,1.575,3.494,3.523,3.494h48.51   c1.947,0,3.521-1.559,3.521-3.494c0,0-1.844-6.861-6.525-11.543c-4.815-4.813-8.244-5.146-8.244-5.146   c-1.444,6.983-8.555,8.786-13.007,8.786s-11.322-2.643-11.941-9.439c0,0-4.559,1.199-9.367,5.674   C1.378,56.689,0.5,62.768,0.5,62.768z" id="svg1.body_9_" stroke="#ED8D00"/>
</g>
</svg>
      </g>
    </g>
    <g text-rendering="geometricPrecision" shape-rendering="geometricPrecision" transform="matrix(1,0,0,1,709.3819,48.246)">
      <g clip-path="url(#clipPath4)">
        <svg xml:space="preserve" opacity="1" writing-mode="lr-tb" stop-color="rgb(0, 0, 0)" shape-rendering="auto" glyph-orientation-horizontal="0deg" color-profile="auto" lighting-color="rgb(255, 255, 255)" color="rgb(0, 0, 0)" font-weight="400" alignment-baseline="auto" font-style="normal" version="1.1" color-interpolation-filters="linearrgb" text-anchor="start" stroke-linecap="butt" color-interpolation="srgb" font-variant="normal" word-spacing="normal" fill-opacity="1" text-rendering="auto" clip-path="none" text-decoration="none" letter-spacing="normal" viewBox="-0.064 -0.075 68 46" glyph-orientation-vertical="auto" display="inline" font-size-adjust="none" overflow="hidden" fill="rgb(0, 0, 0)" font-stretch="normal" stroke-dasharray="none" stroke-miterlimit="4" stop-opacity="1" color-rendering="auto" font-size="12" pointer-events="visiblepainted" mask="none" direction="ltr" baseline-shift="baseline" enable-background="new -0.064 -0.075 68 46" fill-rule="nonzero" image-rendering="auto" stroke-dashoffset="0" width="68px" marker-end="none" clip="auto" cursor="auto" stroke="none" filter="none" visibility="visible" kerning="auto" stroke-width="1" font-family="&quot;Arial&quot;,&quot;Helvetica&quot;,sans-serif" flood-opacity="1" clip-rule="nonzero" src="none" height="46px" unicode-bidi="normal" stroke-linejoin="miter" stroke-opacity="1" flood-color="rgb(0, 0, 0)" dominant-baseline="auto" marker-start="none" x="0px" marker-mid="none" y="0px">
<defs>
<linearGradient x1="280" gradientUnits="userSpaceOnUse" x2="360" y1="252" y2="292" id="linearGradient1" spreadMethod="reflect"><stop stop-opacity="1" stop-color="rgb(232,238,247)" offset="0%"/><stop stop-opacity="1" stop-color="rgb(183,201,227)" offset="100%"/></linearGradient><linearGradient x1="444" gradientUnits="userSpaceOnUse" x2="593" y1="104" y2="206" id="linearGradient2" spreadMethod="reflect"><stop stop-opacity="1" stop-color="rgb(232,238,247)" offset="0%"/><stop stop-opacity="1" stop-color="rgb(183,201,227)" offset="100%"/></linearGradient><linearGradient x1="280" gradientUnits="userSpaceOnUse" x2="360" y1="135" y2="175" id="linearGradient3" spreadMethod="reflect"><stop stop-opacity="1" stop-color="rgb(232,238,247)" offset="0%"/><stop stop-opacity="1" stop-color="rgb(183,201,227)" offset="100%"/></linearGradient><linearGradient x1="623" gradientUnits="userSpaceOnUse" x2="703" y1="52" y2="92" id="linearGradient4" spreadMethod="reflect"><stop stop-opacity="1" stop-color="rgb(232,238,247)" offset="0%"/><stop stop-opacity="1" stop-color="rgb(183,201,227)" offset="100%"/></linearGradient><linearGradient x1="623" gradientUnits="userSpaceOnUse" x2="703" y1="252" y2="292" id="linearGradient5" spreadMethod="reflect"><stop stop-opacity="1" stop-color="rgb(232,238,247)" offset="0%"/><stop stop-opacity="1" stop-color="rgb(183,201,227)" offset="100%"/></linearGradient><clipPath clipPathUnits="userSpaceOnUse" id="clipPath1"><path d="M0 0 L792 0 L792 335 L0 335 L0 0 Z"/></clipPath><clipPath clipPathUnits="userSpaceOnUse" id="clipPath2"><path d="M231 -2 L1023 -2 L1023 333 L231 333 L231 -2 Z"/></clipPath><clipPath clipPathUnits="userSpaceOnUse" id="clipPath3"><path d="M-720.3885 -194.9291 L71.6101 -194.9291 L71.6101 130.8092 L-720.3885 130.8092 L-720.3885 -194.9291 Z"/></clipPath><clipPath clipPathUnits="userSpaceOnUse" id="clipPath4"><path d="M-709.3819 -48.2439 L82.6181 -48.2439 L82.6181 286.7415 L-709.3819 286.7415 L-709.3819 -48.2439 Z"/></clipPath></defs>
<radialGradient gradientTransform="matrix(1.15 0 0 1 -526.6598 -1982.4023)" id="svg2.SVGID_1_" r="21.6001" cx="478.8413" gradientUnits="userSpaceOnUse" cy="1991.2729">
	<stop offset="0" style="stop-color:#F2F2F2"/>
	<stop offset="1" style="stop-color:#8D8D8D"/>
</radialGradient>
<path fill="url(#svg2.SVGID_1_)" d="M10.263,1.903c0-0.987,0.807-1.794,1.794-1.794h43.279c0.986,0,1.795,0.807,1.795,1.794v26.978  c0,0.987-0.809,1.794-1.795,1.794h-43.28c-0.987,0-1.794-0.807-1.794-1.794L10.263,1.903L10.263,1.903z"/>
<path stroke-linecap="round" display="none" fill="none" stroke-linejoin="round" d="  M10.263,1.903c0-0.987,0.807-1.794,1.794-1.794h43.279c0.986,0,1.795,0.807,1.795,1.794v26.978c0,0.987-0.809,1.794-1.795,1.794  h-43.28c-0.987,0-1.794-0.807-1.794-1.794L10.263,1.903L10.263,1.903z" stroke="#3C89C9" stroke-width="0.2185" stroke-miterlimit="10"/>
<radialGradient gradientTransform="matrix(1.1935 0 0 1 -509.6731 -1982.4023)" gradientUnits="userSpaceOnUse" r="47.8462" cx="455.894" id="svg2.SVGID_2_" cy="1983.9624" fx="493.5344" fy="1977.5143">
	<stop offset="0" style="stop-color:#4D4D4D"/>
	<stop offset="1" style="stop-color:#999999"/>
</radialGradient>
<path fill="url(#svg2.SVGID_2_)" d="M11.18,2.819c0-0.987,0.807-1.794,1.794-1.794h41.649c0.986,0,1.795,0.807,1.795,1.794v24.943  c0,0.985-0.809,1.794-1.795,1.794H12.974c-0.987,0-1.794-0.809-1.794-1.794V2.819z"/>
<radialGradient gradientTransform="matrix(1.1923 0 0 1 -510.1314 -1982.4023)" id="svg2.SVGID_3_" r="30.6699" cx="456.8843" gradientUnits="userSpaceOnUse" cy="1984.0386">
	<stop offset="0" style="stop-color:#9CD7FF"/>
	<stop offset="1" style="stop-color:#3C89C9"/>
</radialGradient>
<path fill="url(#svg2.SVGID_3_)" d="M11.689,3.228c0-0.987,0.807-1.794,1.794-1.794h40.633c0.986,0,1.795,0.807,1.795,1.794v24.126  c0,0.986-0.809,1.794-1.795,1.794H13.483c-0.987,0-1.794-0.809-1.794-1.794V3.228z"/>
<path fill="#F2F2F2" opacity="0.24" d="M11.689,21.472V3.228c0-0.987,0.807-1.794,1.794-1.794h40.633  c0.986,0,1.795,0.807,1.795,1.794v9.454c0,0.987-10.518,5.21-18.256,6.795C29.917,21.062,11.689,21.472,11.689,21.472z"/>
<linearGradient gradientTransform="matrix(1 0 0 -1 -97.6001 -165.0498)" x1="131.3501" x2="131.3501" gradientUnits="userSpaceOnUse" y1="-212.2612" y2="-170.6274" id="svg2.SVGID_4_">
	<stop offset="0" style="stop-color:#4D4D4D"/>
	<stop offset="0.0667" style="stop-color:#717171"/>
	<stop offset="0.069" style="stop-color:#757575"/>
	<stop offset="0.0831" style="stop-color:#8C8C8C"/>
	<stop offset="0.0996" style="stop-color:#9E9E9E"/>
	<stop offset="0.1196" style="stop-color:#AAAAAA"/>
	<stop offset="0.1466" style="stop-color:#B1B1B1"/>
	<stop offset="0.2121" style="stop-color:#B3B3B3"/>
	<stop offset="1" style="stop-color:#C5C5C5"/>
</linearGradient>
<path fill="url(#svg2.SVGID_4_)" d="M58.385,32.234c-0.689-0.856-2.154-1.559-3.254-1.559H12c-1.1,0-2.552,0.711-3.227,1.579  l-7.546,9.717C0,43.55,0.042,43.785,0,44.55v0.125c0.056,0.393,0.311,1.002,1.248,1.002h64.75c0.75,0.002,1.5-0.252,1.5-1.002V44.55  c0-0.813,0-0.813-1.254-2.559L58.385,32.234z"/>
<path fill="#F2F2F2" d="M58.385,32.234c-0.689-0.856-2.154-1.559-3.254-1.559H12  c-1.1,0-2.552,0.711-3.227,1.579l-7.055,9.085l58.098-7.33L58.385,32.234z" enable-background="new    " opacity="0.23"/>
<path fill="#6E6E6E" d="M59.75,37.205c0.344,0.431,0.172,0.783-0.377,0.783H8.249c-0.55,0-0.742-0.369-0.427-0.819l2.786-3.986  c0.315-0.45,1.023-0.819,1.573-0.819h42.729c0.551,0,1.279,0.354,1.623,0.783L59.75,37.205z"/>
<path fill="#6E6E6E" d="M40.43,41.906c0.072,0.217-0.057,0.395-0.285,0.395H26.727c-0.229,0-0.364-0.18-0.3-0.398l0.822-2.826  c0.064-0.221,0.303-0.399,0.532-0.399h11.167c0.229,0,0.475,0.179,0.547,0.396L40.43,41.906z"/>
</svg>
      </g>
    </g>
    <g fill="rgb(255,204,0)" text-rendering="geometricPrecision" shape-rendering="geometricPrecision" transform="matrix(1,0,0,1,-231,2)" stroke="rgb(255,204,0)">
      <circle r="15" clip-path="url(#clipPath2)" cx="811.5" cy="155" stroke="none"/>
    </g>
    <g text-rendering="geometricPrecision" stroke-miterlimit="1.45" shape-rendering="geometricPrecision" transform="matrix(1,0,0,1,-231,2)" stroke-linecap="butt">
      <circle fill="none" r="15" clip-path="url(#clipPath2)" cx="811.5" cy="155"/>
      <path fill="none" d="M320 251.9763 L320 178.0105" clip-path="url(#clipPath2)"/>
      <path d="M320 170.0105 L315 182.0105 L320 179.0105 L325 182.0105 Z" clip-path="url(#clipPath2)" stroke="none"/>
      <path fill="none" d="M359.9811 155 L436.0008 155" clip-path="url(#clipPath2)"/>
      <path d="M444.0008 155 L432.0008 150 L435.0008 155 L432.0008 160 Z" clip-path="url(#clipPath2)" stroke="none"/>
      <path fill="none" d="M614.424 82.5595 L581.8019 107.1953" clip-path="url(#clipPath2)"/>
      <path d="M623.202 75.9304 L610.0101 78.3741 L617.2418 87.9502 Z" clip-path="url(#clipPath2)" stroke="none"/>
      <path d="M573.0238 113.8244 L586.2158 111.3807 L578.984 101.8046 Z" clip-path="url(#clipPath2)" stroke="none"/>
      <path fill="none" d="M612.014 272 L370.9851 272" clip-path="url(#clipPath2)"/>
      <path d="M623.014 272 L611.014 266 L611.014 278 Z" clip-path="url(#clipPath2)" stroke="none"/>
      <path d="M359.9851 272 L371.9851 278 L371.9851 266 Z" clip-path="url(#clipPath2)" stroke="none"/>
      <path fill="none" d="M943.491 85.4044 L831.8451 144.2726" clip-path="url(#clipPath2)"/>
      <path d="M824.7686 148.0038 L837.7155 146.8298 L832.7297 143.8062 L833.0513 137.9841 Z" clip-path="url(#clipPath2)" stroke="none"/>
      <path fill="none" d="M961.3146 224.4878 L832.3649 164.6777" clip-path="url(#clipPath2)"/>
      <path d="M825.1075 161.3115 L833.8897 170.8966 L833.272 165.0984 L838.0974 161.8249 Z" clip-path="url(#clipPath2)" stroke="none"/>
      <path fill="none" d="M790.8788 139.1644 L711.7444 78.3944" clip-path="url(#clipPath2)"/>
      <path d="M799.6031 145.8641 L793.7401 133.7966 L786.4313 143.314 Z" clip-path="url(#clipPath2)" stroke="none"/>
      <path d="M703.0201 71.6947 L708.8831 83.7622 L716.1919 74.2448 Z" clip-path="url(#clipPath2)" stroke="none"/>
      <path fill="none" d="M785.5 155 L603.9885 155" clip-path="url(#clipPath2)"/>
      <path d="M796.5 155 L784.5 149 L784.5 161 Z" clip-path="url(#clipPath2)" stroke="none"/>
      <path d="M592.9885 155 L604.9885 161 L604.9885 149 Z" clip-path="url(#clipPath2)" stroke="none"/>
      <path fill="none" d="M792.5298 172.7801 L708.8093 251.2489" clip-path="url(#clipPath2)"/>
      <path d="M800.5557 165.2578 L787.6971 169.0863 L795.9033 177.8417 Z" clip-path="url(#clipPath2)" stroke="none"/>
      <path d="M700.7834 258.7713 L713.642 254.9428 L705.4358 246.1873 Z" clip-path="url(#clipPath2)" stroke="none"/>
    </g>
  </g>
</svg>
