<?xml version="1.0" encoding="UTF-8"?><svg xmlns="http://www.w3.org/2000/svg" xmlns:xlink="http://www.w3.org/1999/xlink" fill-opacity="1" color-rendering="auto" color-interpolation="auto" text-rendering="auto" stroke="black" stroke-linecap="square" width="1167" stroke-miterlimit="10" shape-rendering="auto" stroke-opacity="1" fill="black" stroke-dasharray="none" font-weight="normal" stroke-width="1" height="462" font-family="'Dialog'" font-style="normal" stroke-linejoin="miter" font-size="12px" stroke-dashoffset="0" image-rendering="auto">
  <!--Generated by ySVG 2.5-->
  <defs id="genericDefs"/>
  <g>
    <defs id="defs1">
      <clipPath clipPathUnits="userSpaceOnUse" id="clipPath1">
        <path d="M0 0 L1167 0 L1167 462 L0 462 L0 0 Z"/>
      </clipPath>
      <clipPath clipPathUnits="userSpaceOnUse" id="clipPath2">
        <path d="M50 275 L1217 275 L1217 737 L50 737 L50 275 Z"/>
      </clipPath>
    </defs>
    <g fill="white" text-rendering="geometricPrecision" shape-rendering="geometricPrecision" transform="translate(-50,-275)" stroke="white">
      <rect x="50" width="1167" height="462" y="275" clip-path="url(#clipPath2)" stroke="none"/>
    </g>
    <g stroke-linecap="round" transform="matrix(1,0,0,1,-50,-275)" stroke-dashoffset="2" text-rendering="geometricPrecision" shape-rendering="geometricPrecision" stroke-dasharray="0,4" stroke-miterlimit="1.45">
      <ellipse rx="224" fill="none" ry="139.5" clip-path="url(#clipPath2)" cx="682.7551" cy="582.0429"/>
    </g>
    <g text-rendering="geometricPrecision" stroke-miterlimit="1.45" shape-rendering="geometricPrecision" font-family="sans-serif" transform="matrix(1,0,0,1,-50,-275)" stroke-linecap="butt">
      <text x="864" xml:space="preserve" y="452.1855" clip-path="url(#clipPath2)" stroke="none">Estándares y vocabularios específicos de la comunidad:</text>
      <text x="864" xml:space="preserve" y="466.1543" clip-path="url(#clipPath2)" stroke="none">- Life Sciences: Gene Ontology, ...</text>
      <text x="864" xml:space="preserve" y="480.123" clip-path="url(#clipPath2)" stroke="none">- Open Data: DCAT-EU, ...</text>
    </g>
    <g fill="rgb(255,204,0)" text-rendering="geometricPrecision" shape-rendering="geometricPrecision" transform="matrix(1,0,0,1,-50,-275)" stroke="rgb(255,204,0)">
      <rect x="65.577" y="424" clip-path="url(#clipPath2)" width="114" rx="4" ry="4" height="30" stroke="none"/>
    </g>
    <g text-rendering="geometricPrecision" stroke-miterlimit="1.45" shape-rendering="geometricPrecision" transform="matrix(1,0,0,1,-50,-275)" stroke-linecap="butt">
      <rect x="65.577" y="424" clip-path="url(#clipPath2)" fill="none" width="114" rx="4" ry="4" height="30"/>
      <text x="78.3827" xml:space="preserve" y="443.1543" clip-path="url(#clipPath2)" font-family="sans-serif" stroke="none">Principios FAIR</text>
      <rect x="359.5912" y="394" clip-path="url(#clipPath2)" fill="none" width="149" stroke-dasharray="6,2" rx="4" ry="4" height="30"/>
      <text x="365.5307" xml:space="preserve" y="413.1543" clip-path="url(#clipPath2)" font-family="sans-serif" stroke="none">Infraestructura técnica</text>
      <rect x="359.5912" y="454" clip-path="url(#clipPath2)" fill="none" width="81" stroke-dasharray="6,2" rx="4" ry="4" height="30"/>
      <text x="369.435" xml:space="preserve" y="473.1543" clip-path="url(#clipPath2)" font-family="sans-serif" stroke="none">Contenido</text>
    </g>
    <g fill="rgb(255,204,0)" text-rendering="geometricPrecision" shape-rendering="geometricPrecision" transform="matrix(1,0,0,1,-50,-275)" stroke="rgb(255,204,0)">
      <circle r="15" clip-path="url(#clipPath2)" cx="314.5912" cy="439" stroke="none"/>
    </g>
    <g text-rendering="geometricPrecision" stroke-miterlimit="1.45" shape-rendering="geometricPrecision" transform="matrix(1,0,0,1,-50,-275)" stroke-linecap="butt">
      <circle fill="none" r="15" clip-path="url(#clipPath2)" cx="314.5912" cy="439"/>
    </g>
    <g fill="rgb(153,204,255)" text-rendering="geometricPrecision" shape-rendering="geometricPrecision" transform="matrix(1,0,0,1,-50,-275)" stroke="rgb(153,204,255)">
      <rect x="572.7638" y="394" clip-path="url(#clipPath2)" width="167.0105" rx="4" ry="4" height="30" stroke="none"/>
    </g>
    <g text-rendering="geometricPrecision" stroke-miterlimit="1.45" shape-rendering="geometricPrecision" transform="matrix(1,0,0,1,-50,-275)" stroke-linecap="butt">
      <rect x="572.7638" y="394" clip-path="url(#clipPath2)" fill="none" width="167.0105" rx="4" ry="4" height="30"/>
      <text x="581.3101" xml:space="preserve" y="406.1699" clip-path="url(#clipPath2)" font-family="sans-serif" stroke="none">F1 - URIs</text>
      <text x="581.3101" xml:space="preserve" y="420.1387" clip-path="url(#clipPath2)" font-family="sans-serif" stroke="none">F4 - Searchable resource</text>
    </g>
    <g fill="rgb(153,204,255)" text-rendering="geometricPrecision" shape-rendering="geometricPrecision" transform="matrix(1,0,0,1,-50,-275)" stroke="rgb(153,204,255)">
      <rect x="572.7638" y="454" clip-path="url(#clipPath2)" width="204.091" rx="4" ry="4" height="30" stroke="none"/>
    </g>
    <g text-rendering="geometricPrecision" stroke-miterlimit="1.45" shape-rendering="geometricPrecision" transform="matrix(1,0,0,1,-50,-275)" stroke-linecap="butt">
      <rect x="572.7638" y="454" clip-path="url(#clipPath2)" fill="none" width="204.091" rx="4" ry="4" height="30"/>
      <text x="580.0368" xml:space="preserve" y="466.1699" clip-path="url(#clipPath2)" font-family="sans-serif" stroke="none">F2 - Rich metadata</text>
      <text x="580.0368" xml:space="preserve" y="480.1387" clip-path="url(#clipPath2)" font-family="sans-serif" stroke="none">F3 - Data identifier in metadata</text>
    </g>
    <g fill="rgb(153,204,255)" text-rendering="geometricPrecision" shape-rendering="geometricPrecision" transform="matrix(1,0,0,1,-50,-275)" stroke="rgb(153,204,255)">
      <rect x="572.7638" y="290.5629" clip-path="url(#clipPath2)" width="279.3113" rx="4" ry="4" height="73.4371" stroke="none"/>
    </g>
    <g text-rendering="geometricPrecision" stroke-miterlimit="1.45" shape-rendering="geometricPrecision" transform="matrix(1,0,0,1,-50,-275)" stroke-linecap="butt">
      <rect x="572.7638" y="290.5629" clip-path="url(#clipPath2)" fill="none" width="279.3113" rx="4" ry="4" height="73.4371"/>
      <text x="577.3872" xml:space="preserve" y="310.4826" clip-path="url(#clipPath2)" font-family="sans-serif" stroke="none">A1 - Protocol</text>
      <text x="577.3872" xml:space="preserve" y="324.4514" clip-path="url(#clipPath2)" font-family="sans-serif" stroke="none">A1.1 - Open, free, universally implementable</text>
      <text x="577.3872" xml:space="preserve" y="338.4201" clip-path="url(#clipPath2)" font-family="sans-serif" stroke="none">A1.2 - Authentication, authorization</text>
      <text x="577.3872" xml:space="preserve" y="352.3889" clip-path="url(#clipPath2)" font-family="sans-serif" stroke="none">A2- Metadata accesible if no data</text>
    </g>
    <g fill="rgb(153,204,255)" text-rendering="geometricPrecision" shape-rendering="geometricPrecision" transform="matrix(1,0,0,1,-50,-275)" stroke="rgb(153,204,255)">
      <rect x="572.7638" y="514" clip-path="url(#clipPath2)" width="219.9826" rx="4" ry="4" height="54.3672" stroke="none"/>
    </g>
    <g text-rendering="geometricPrecision" stroke-miterlimit="1.45" shape-rendering="geometricPrecision" transform="matrix(1,0,0,1,-50,-275)" stroke-linecap="butt">
      <rect x="572.7638" y="514" clip-path="url(#clipPath2)" fill="none" width="219.9826" rx="4" ry="4" height="54.3672"/>
      <text x="578.7307" xml:space="preserve" y="531.3691" clip-path="url(#clipPath2)" font-family="sans-serif" stroke="none">I1 - Formal, accesible ... KR</text>
      <text x="578.7307" xml:space="preserve" y="545.3379" clip-path="url(#clipPath2)" font-family="sans-serif" stroke="none">I2 - FAIR vocabularies</text>
      <text x="578.7307" xml:space="preserve" y="559.3066" clip-path="url(#clipPath2)" font-family="sans-serif" stroke="none">I3 - References to other metadata </text>
    </g>
    <g fill="rgb(153,204,255)" text-rendering="geometricPrecision" shape-rendering="geometricPrecision" transform="matrix(1,0,0,1,-50,-275)" stroke="rgb(153,204,255)">
      <rect x="572.7638" y="595.7185" clip-path="url(#clipPath2)" width="279.3113" rx="4" ry="4" height="73.4371" stroke="none"/>
    </g>
    <g text-rendering="geometricPrecision" stroke-miterlimit="1.45" shape-rendering="geometricPrecision" transform="matrix(1,0,0,1,-50,-275)" stroke-linecap="butt">
      <rect x="572.7638" y="595.7185" clip-path="url(#clipPath2)" fill="none" width="279.3113" rx="4" ry="4" height="73.4371"/>
      <text x="585.7778" xml:space="preserve" y="615.6382" clip-path="url(#clipPath2)" font-family="sans-serif" stroke="none">R1 - (Meta)data are richly described</text>
      <text x="585.7778" xml:space="preserve" y="629.607" clip-path="url(#clipPath2)" font-family="sans-serif" stroke="none">R1.1 - Clear license</text>
      <text x="585.7778" xml:space="preserve" y="643.5757" clip-path="url(#clipPath2)" font-family="sans-serif" stroke="none">R1.2 - Detailed provenance</text>
      <text x="585.7778" xml:space="preserve" y="657.5445" clip-path="url(#clipPath2)" font-family="sans-serif" stroke="none">R1.3 - Domain level community standards</text>
      <path fill="none" d="M179.599 439 L291.5912 439" clip-path="url(#clipPath2)"/>
      <path d="M299.5912 439 L287.5912 434 L290.5912 439 L287.5912 444 Z" clip-path="url(#clipPath2)" stroke="none"/>
      <text x="202.4957" font-size="8px" y="429.7095" clip-path="url(#clipPath2)" font-family="sans-serif" stroke="none" xml:space="preserve">Implementación</text>
      <path fill="none" d="M327.0742 430.6828 L352.9279 413.457" clip-path="url(#clipPath2)"/>
      <path d="M359.5855 409.0212 L346.8268 411.5139 L352.0958 414.0115 L352.3716 419.8359 Z" clip-path="url(#clipPath2)" stroke="none"/>
      <path fill="none" d="M327.0729 447.3191 L352.9138 464.542" clip-path="url(#clipPath2)"/>
      <path d="M359.5707 468.9788 L352.3583 458.163 L352.0816 463.9874 L346.8123 466.4842 Z" clip-path="url(#clipPath2)" stroke="none"/>
      <path fill="none" d="M508.5935 409 L564.7328 409" clip-path="url(#clipPath2)"/>
      <path d="M572.7328 409 L560.7328 404 L563.7328 409 L560.7328 414 Z" clip-path="url(#clipPath2)" stroke="none"/>
      <path fill="none" d="M440.5678 469 L564.7576 469" clip-path="url(#clipPath2)"/>
      <path d="M572.7576 469 L560.7576 464 L563.7576 469 L560.7576 474 Z" clip-path="url(#clipPath2)" stroke="none"/>
      <path fill="none" d="M508.5807 408.98 L567.7974 333.5733" clip-path="url(#clipPath2)"/>
      <path d="M572.7383 327.2814 L561.3945 333.6311 L567.1798 334.3597 L569.2593 339.8073 Z" clip-path="url(#clipPath2)" stroke="none"/>
      <path fill="none" d="M440.6122 469.0176 L565.7321 537.3491" clip-path="url(#clipPath2)"/>
      <path d="M572.7533 541.1836 L564.6181 531.0436 L564.8545 536.8698 L559.825 539.8201 Z" clip-path="url(#clipPath2)" stroke="none"/>
      <path fill="none" d="M440.5961 469.02 L567.7082 626.2164" clip-path="url(#clipPath2)"/>
      <path d="M572.7383 632.4371 L569.0811 619.9622 L567.0794 625.4388 L561.3051 626.2498 Z" clip-path="url(#clipPath2)" stroke="none"/>
    </g>
  </g>
</svg>
