<?xml version="1.0" encoding="UTF-8"?><svg xmlns="http://www.w3.org/2000/svg" xmlns:xlink="http://www.w3.org/1999/xlink" fill-opacity="1" color-rendering="auto" color-interpolation="auto" text-rendering="auto" stroke="black" stroke-linecap="square" width="1006" stroke-miterlimit="10" shape-rendering="auto" stroke-opacity="1" fill="black" stroke-dasharray="none" font-weight="normal" stroke-width="1" height="582" font-family="'Dialog'" font-style="normal" stroke-linejoin="miter" font-size="12px" stroke-dashoffset="0" image-rendering="auto">
  <!--Generated by ySVG 2.6-->
  <defs id="genericDefs"/>
  <g>
    <defs id="defs1">
      <clipPath clipPathUnits="userSpaceOnUse" id="clipPath1">
        <path d="M0 0 L1006 0 L1006 582 L0 582 L0 0 Z"/>
      </clipPath>
      <clipPath clipPathUnits="userSpaceOnUse" id="clipPath2">
        <path d="M283 34 L1289 34 L1289 616 L283 616 L283 34 Z"/>
      </clipPath>
    </defs>
    <g fill="white" text-rendering="geometricPrecision" shape-rendering="geometricPrecision" transform="translate(-283,-34)" stroke="white">
      <rect x="283" width="1006" height="582" y="34" clip-path="url(#clipPath2)" stroke="none"/>
    </g>
    <g fill="rgb(255,204,0)" text-rendering="geometricPrecision" shape-rendering="geometricPrecision" transform="matrix(1,0,0,1,-283,-34)" stroke="rgb(255,204,0)">
      <ellipse rx="96.5" ry="15" clip-path="url(#clipPath2)" cx="435.5" cy="132" stroke="none"/>
    </g>
    <g text-rendering="geometricPrecision" stroke-miterlimit="1.45" shape-rendering="geometricPrecision" transform="matrix(1,0,0,1,-283,-34)" stroke-linecap="butt">
      <ellipse rx="96.5" fill="none" ry="15" clip-path="url(#clipPath2)" cx="435.5" cy="132"/>
      <text x="360.2656" xml:space="preserve" y="136.1543" clip-path="url(#clipPath2)" font-family="sans-serif" stroke="none">um.es/data/LDD9999333</text>
    </g>
    <g fill="rgb(255,204,0)" text-rendering="geometricPrecision" shape-rendering="geometricPrecision" transform="matrix(1,0,0,1,-283,-34)" stroke="rgb(255,204,0)">
      <ellipse rx="117.5" ry="15" clip-path="url(#clipPath2)" cx="837.5" cy="96" stroke="none"/>
    </g>
    <g text-rendering="geometricPrecision" stroke-miterlimit="1.45" shape-rendering="geometricPrecision" transform="matrix(1,0,0,1,-283,-34)" stroke-linecap="butt">
      <ellipse rx="117.5" fill="none" ry="15" clip-path="url(#clipPath2)" cx="837.5" cy="96"/>
      <text x="740.9902" xml:space="preserve" y="100.1543" clip-path="url(#clipPath2)" font-family="sans-serif" stroke="none">purl.uniprot.org/taxonomy/9606</text>
    </g>
    <g fill="rgb(255,204,0)" text-rendering="geometricPrecision" shape-rendering="geometricPrecision" transform="matrix(1,0,0,1,-283,-34)" stroke="rgb(255,204,0)">
      <rect x="706" width="50" height="30" y="166" clip-path="url(#clipPath2)" stroke="none"/>
    </g>
    <g text-rendering="geometricPrecision" stroke-miterlimit="1.45" shape-rendering="geometricPrecision" transform="matrix(1,0,0,1,-283,-34)" stroke-linecap="butt">
      <rect fill="none" x="706" width="50" height="30" y="166" clip-path="url(#clipPath2)"/>
      <text x="713.2344" xml:space="preserve" y="185.1543" clip-path="url(#clipPath2)" font-family="sans-serif" stroke="none">GGG2</text>
      <ellipse stroke-linecap="round" clip-path="url(#clipPath2)" stroke-dashoffset="2" fill="none" rx="379" stroke-dasharray="0,4" cx="677" ry="106" cy="155"/>
    </g>
    <g fill="rgb(255,204,0)" text-rendering="geometricPrecision" shape-rendering="geometricPrecision" transform="matrix(1,0,0,1,-283,-34)" stroke="rgb(255,204,0)">
      <ellipse rx="117.5" ry="15" clip-path="url(#clipPath2)" cx="692.5" cy="546" stroke="none"/>
    </g>
    <g text-rendering="geometricPrecision" stroke-miterlimit="1.45" shape-rendering="geometricPrecision" transform="matrix(1,0,0,1,-283,-34)" stroke-linecap="butt">
      <ellipse rx="117.5" fill="none" ry="15" clip-path="url(#clipPath2)" cx="692.5" cy="546"/>
      <text x="595.375" xml:space="preserve" y="550.1543" clip-path="url(#clipPath2)" font-family="sans-serif" stroke="none">um.es/dataset/UMGenesDataset</text>
    </g>
    <g fill="rgb(255,204,0)" text-rendering="geometricPrecision" shape-rendering="geometricPrecision" transform="matrix(1,0,0,1,-283,-34)" stroke="rgb(255,204,0)">
      <ellipse rx="117.5" ry="15" clip-path="url(#clipPath2)" cx="887.5" cy="360" stroke="none"/>
    </g>
    <g text-rendering="geometricPrecision" stroke-miterlimit="1.45" shape-rendering="geometricPrecision" transform="matrix(1,0,0,1,-283,-34)" stroke-linecap="butt">
      <ellipse rx="117.5" fill="none" ry="15" clip-path="url(#clipPath2)" cx="887.5" cy="360"/>
      <text x="848.8457" xml:space="preserve" y="364.1543" clip-path="url(#clipPath2)" font-family="sans-serif" stroke="none">dcat:Dataset</text>
    </g>
    <g fill="rgb(255,204,0)" text-rendering="geometricPrecision" shape-rendering="geometricPrecision" transform="matrix(1,0,0,1,-283,-34)" stroke="rgb(255,204,0)">
      <rect x="493" width="66" height="30" y="345" clip-path="url(#clipPath2)" stroke="none"/>
    </g>
    <g text-rendering="geometricPrecision" stroke-miterlimit="1.45" shape-rendering="geometricPrecision" transform="matrix(1,0,0,1,-283,-34)" stroke-linecap="butt">
      <rect fill="none" x="493" width="66" height="30" y="345" clip-path="url(#clipPath2)"/>
      <text x="495.5635" xml:space="preserve" y="364.1543" clip-path="url(#clipPath2)" font-family="sans-serif" stroke="none">Genes UM</text>
    </g>
    <g fill="rgb(255,204,0)" text-rendering="geometricPrecision" shape-rendering="geometricPrecision" transform="matrix(1,0,0,1,-283,-34)" stroke="rgb(255,204,0)">
      <ellipse rx="117.5" ry="15" clip-path="url(#clipPath2)" cx="682.5" cy="258" stroke="none"/>
    </g>
    <g text-rendering="geometricPrecision" stroke-miterlimit="1.45" shape-rendering="geometricPrecision" transform="matrix(1,0,0,1,-283,-34)" stroke-linecap="butt">
      <ellipse rx="117.5" fill="none" ry="15" clip-path="url(#clipPath2)" cx="682.5" cy="258"/>
      <text x="624.4014" xml:space="preserve" y="262.1543" clip-path="url(#clipPath2)" font-family="sans-serif" stroke="none">um.es/graph/genes</text>
    </g>
    <g fill="rgb(255,204,0)" text-rendering="geometricPrecision" shape-rendering="geometricPrecision" transform="matrix(1,0,0,1,-283,-34)" stroke="rgb(255,204,0)">
      <ellipse rx="96.5" ry="15" clip-path="url(#clipPath2)" cx="1043.5" cy="453" stroke="none"/>
    </g>
    <g text-rendering="geometricPrecision" stroke-miterlimit="1.45" shape-rendering="geometricPrecision" transform="matrix(1,0,0,1,-283,-34)" stroke-linecap="butt">
      <ellipse rx="96.5" fill="none" ry="15" clip-path="url(#clipPath2)" cx="1043.5" cy="453"/>
      <text x="992.9893" xml:space="preserve" y="457.1543" clip-path="url(#clipPath2)" font-family="sans-serif" stroke="none">um.es/csv/genes</text>
    </g>
    <g fill="rgb(255,204,0)" text-rendering="geometricPrecision" shape-rendering="geometricPrecision" transform="matrix(1,0,0,1,-283,-34)" stroke="rgb(255,204,0)">
      <ellipse rx="123" ry="15" clip-path="url(#clipPath2)" cx="1151" cy="241" stroke="none"/>
    </g>
    <g text-rendering="geometricPrecision" stroke-miterlimit="1.45" shape-rendering="geometricPrecision" transform="matrix(1,0,0,1,-283,-34)" stroke-linecap="butt">
      <ellipse rx="123" fill="none" ry="15" clip-path="url(#clipPath2)" cx="1151" cy="241"/>
      <text x="1063.2529" xml:space="preserve" y="245.1543" clip-path="url(#clipPath2)" font-family="sans-serif" stroke="none">http://localhost/GenesUM.csv</text>
      <path fill="none" d="M476.3756 118.4121 L484.6887 115.6487 L534.1806 102.6835 L583.9758 93.1043 L634.0742 86.9113 L684.4758 84.1043 L735.1806 84.6835 L742.6964 85.2677" clip-path="url(#clipPath2)"/>
      <path d="M750.6723 85.8877 L739.0959 79.9727 L741.6994 85.1902 L738.3209 89.9427 Z" clip-path="url(#clipPath2)" stroke="none"/>
      <text x="575.8267" xml:space="preserve" y="128.6828" clip-path="url(#clipPath2)" font-family="sans-serif" stroke="none">organism</text>
      <path fill="none" d="M454.3008 146.6945 L469.2764 157.1887 L486.5032 167.7404 L503.9559 176.9305 L521.6343 184.759 L539.5386 191.2257 L557.6687 196.3307 L576.0245 200.0741 L594.6062 202.4557 L613.4136 203.4757 L632.4468 203.134 L651.7059 201.4305 L671.1907 198.3654 L690.9014 193.9387 L698.2877 191.794" clip-path="url(#clipPath2)"/>
      <path d="M705.9705 189.5634 L693.0522 188.1077 L697.3274 192.0729 L695.8405 197.7111 Z" clip-path="url(#clipPath2)" stroke="none"/>
      <text x="493.6547" xml:space="preserve" y="204.6902" clip-path="url(#clipPath2)" font-family="sans-serif" stroke="none">label</text>
      <path fill="none" d="M710.3093 531.1733 L744.3945 502.7966 L794.1926 457.3955 L841.8945 409.7966 L868.4523 380.7982" clip-path="url(#clipPath2)"/>
      <path d="M873.8554 374.8985 L862.0634 380.3711 L867.7769 381.5357 L869.438 387.125 Z" clip-path="url(#clipPath2)" stroke="none"/>
      <text x="779.3777" xml:space="preserve" y="502.5697" clip-path="url(#clipPath2)" font-family="sans-serif" stroke="none">type</text>
      <path fill="none" d="M677.3591 531.1251 L647.8892 502.1727 L605.269 456.5637 L564.6392 409.1727 L542.7297 381.2903" clip-path="url(#clipPath2)"/>
      <path d="M537.7868 375 L541.2697 387.5248 L543.3475 382.0767 L549.1326 381.3462 Z" clip-path="url(#clipPath2)" stroke="none"/>
      <text x="648.535" xml:space="preserve" y="476.9893" clip-path="url(#clipPath2)" font-family="sans-serif" stroke="none">label</text>
      <path fill="none" d="M693.9762 531.0012 L696.0596 509.833 L698.2451 473.7137 L699.0564 437.6422 L698.4935 401.6183 L696.5564 365.6422 L693.2451 329.7137 L688.5596 293.833 L686.3699 280.8845" clip-path="url(#clipPath2)"/>
      <path d="M685.036 272.9965 L682.1069 285.6622 L686.5367 281.8705 L691.9669 283.9948 Z" clip-path="url(#clipPath2)" stroke="none"/>
      <text x="686.8698" xml:space="preserve" y="464.0934" clip-path="url(#clipPath2)" font-family="sans-serif" stroke="none">namedGraph</text>
      <path fill="none" d="M733.389 560.0543 L744.0161 563.2138 L768.9554 568.7308 L793.3489 572.188 L817.1967 573.5852 L840.4987 572.9225 L863.2549 570.1998 L885.4653 565.4173 L907.1299 558.5748 L928.2487 549.6725 L948.8217 538.7102 L968.8489 525.688 L988.3304 510.6059 L1007.2661 493.4638 L1025.6559 474.2619 L1025.8741 474.0019" clip-path="url(#clipPath2)"/>
      <path d="M1031.017 467.874 L1019.4728 473.8516 L1025.2313 474.7679 L1027.1327 480.2801 Z" clip-path="url(#clipPath2)" stroke="none"/>
      <text x="810.5366" xml:space="preserve" y="595.624" clip-path="url(#clipPath2)" font-family="sans-serif" stroke="none">distribution</text>
      <path fill="none" d="M1058.8256 438.1904 L1066.11 431.1511 L1086.0991 407.9734 L1103.4678 383.4667 L1118.2156 357.6311 L1130.3428 330.4667 L1139.8491 301.9734 L1146.735 272.1511 L1147.8613 263.924" clip-path="url(#clipPath2)"/>
      <path d="M1148.9465 255.9979 L1142.365 267.2087 L1147.7257 264.9147 L1152.2725 268.5652 Z" clip-path="url(#clipPath2)" stroke="none"/>
      <text x="1082.1584" xml:space="preserve" y="404.2284" clip-path="url(#clipPath2)" font-family="sans-serif" stroke="none">downloadURL</text>
    </g>
  </g>
</svg>
