<?xml version="1.0" encoding="UTF-8"?><svg xmlns="http://www.w3.org/2000/svg" xmlns:xlink="http://www.w3.org/1999/xlink" fill-opacity="1" color-rendering="auto" color-interpolation="auto" text-rendering="auto" stroke="black" stroke-linecap="square" width="953" stroke-miterlimit="10" shape-rendering="auto" stroke-opacity="1" fill="black" stroke-dasharray="none" font-weight="normal" stroke-width="1" height="437" font-family="'Dialog'" font-style="normal" stroke-linejoin="miter" font-size="12px" stroke-dashoffset="0" image-rendering="auto">
  <!--Generated by ySVG 2.6-->
  <defs id="genericDefs"/>
  <g>
    <defs id="defs1">
      <linearGradient x1="557.324" gradientUnits="userSpaceOnUse" x2="694.0273" y1="371.3089" y2="416.8789" id="linearGradient1" spreadMethod="reflect">
        <stop stop-opacity="1" stop-color="rgb(232,238,247)" offset="0%"/>
        <stop stop-opacity="1" stop-color="rgb(183,201,227)" offset="100%"/>
      </linearGradient>
      <linearGradient x1="1134.3674" gradientUnits="userSpaceOnUse" x2="1223.3674" y1="326.0362" y2="396.5628" id="linearGradient2" spreadMethod="reflect">
        <stop stop-opacity="1" stop-color="rgb(232,238,247)" offset="0%"/>
        <stop stop-opacity="1" stop-color="rgb(183,201,227)" offset="100%"/>
      </linearGradient>
      <linearGradient x1="1145.1185" gradientUnits="userSpaceOnUse" x2="1212.6165" y1="614.0393" y2="672.4203" id="linearGradient3" spreadMethod="reflect">
        <stop stop-opacity="1" stop-color="rgb(232,238,247)" offset="0%"/>
        <stop stop-opacity="1" stop-color="rgb(183,201,227)" offset="100%"/>
      </linearGradient>
      <linearGradient x1="537.1757" gradientUnits="userSpaceOnUse" x2="706.1757" y1="620.4448" y2="666.0148" id="linearGradient4" spreadMethod="reflect">
        <stop stop-opacity="1" stop-color="rgb(232,238,247)" offset="0%"/>
        <stop stop-opacity="1" stop-color="rgb(183,201,227)" offset="100%"/>
      </linearGradient>
      <linearGradient x1="529.3651" gradientUnits="userSpaceOnUse" x2="706.1757" y1="498.6619" y2="538.6619" id="linearGradient5" spreadMethod="reflect">
        <stop stop-opacity="1" stop-color="rgb(232,238,247)" offset="0%"/>
        <stop stop-opacity="1" stop-color="rgb(183,201,227)" offset="100%"/>
      </linearGradient>
      <clipPath clipPathUnits="userSpaceOnUse" id="clipPath1">
        <path d="M0 0 L953 0 L953 437 L0 437 L0 0 Z"/>
      </clipPath>
      <clipPath clipPathUnits="userSpaceOnUse" id="clipPath2">
        <path d="M353 267 L1306 267 L1306 704 L353 704 L353 267 Z"/>
      </clipPath>
    </defs>
    <g fill="white" text-rendering="geometricPrecision" shape-rendering="geometricPrecision" transform="translate(-353,-267)" stroke="white">
      <rect x="353" width="953" height="437" y="267" clip-path="url(#clipPath2)" stroke="none"/>
    </g>
    <g stroke-linecap="butt" transform="matrix(1,0,0,1,-353,-267)" fill="silver" text-rendering="geometricPrecision" shape-rendering="geometricPrecision" stroke-dasharray="6,2" stroke="silver" stroke-miterlimit="1.45">
      <rect x="469.735" y="283.0362" clip-path="url(#clipPath2)" fill="none" width="249.1899" rx="4" ry="4" height="405.8144"/>
      <rect x="777.8655" y="283.0362" clip-path="url(#clipPath2)" fill="none" width="513" rx="4" ry="4" height="405.8144"/>
    </g>
    <g fill="url(#linearGradient1)" text-rendering="geometricPrecision" shape-rendering="geometricPrecision" transform="matrix(1,0,0,1,-353,-267)" stroke="url(#linearGradient1)">
      <path d="M557.324 371.3089 L694.0273 371.3089 L694.0273 411.1826 Q659.8516 399.7901 625.6757 411.1826 Q591.4999 422.5751 557.324 411.1826 Z" stroke="none" clip-path="url(#clipPath2)"/>
    </g>
    <g text-rendering="geometricPrecision" stroke-miterlimit="1.45" shape-rendering="geometricPrecision" transform="matrix(1,0,0,1,-353,-267)" stroke-linecap="butt">
      <path fill="none" d="M557.324 371.3089 L694.0273 371.3089 L694.0273 411.1826 Q659.8516 399.7901 625.6757 411.1826 Q591.4999 422.5751 557.324 411.1826 Z" clip-path="url(#clipPath2)"/>
      <text x="589.2304" xml:space="preserve" y="398.2482" clip-path="url(#clipPath2)" font-family="sans-serif" stroke="none">Private data</text>
    </g>
    <g fill="url(#linearGradient2)" text-rendering="geometricPrecision" shape-rendering="geometricPrecision" transform="matrix(1,0,0,1,-353,-267)" stroke="url(#linearGradient2)">
      <path d="M1134.3674 340.1415 C1137.0375 326.0362 1220.6975 326.0362 1223.3674 340.1415 L1223.3674 382.4575 C1220.6975 396.5628 1137.0375 396.5628 1134.3674 382.4575 Z" stroke="none" clip-path="url(#clipPath2)"/>
    </g>
    <g text-rendering="geometricPrecision" stroke-miterlimit="1.45" shape-rendering="geometricPrecision" transform="matrix(1,0,0,1,-353,-267)" stroke-linecap="butt">
      <path fill="none" d="M1134.3674 340.1415 C1137.0375 326.0362 1220.6975 326.0362 1223.3674 340.1415 L1223.3674 382.4575 C1220.6975 396.5628 1137.0375 396.5628 1134.3674 382.4575 Z" clip-path="url(#clipPath2)"/>
      <path fill="none" d="M1223.3674 340.1415 C1220.6975 354.2469 1137.0375 354.2469 1134.3674 340.1415" clip-path="url(#clipPath2)"/>
      <text x="1151.7268" xml:space="preserve" y="365.4538" clip-path="url(#clipPath2)" font-family="sans-serif" stroke="none">GraphDB</text>
    </g>
    <g fill="url(#linearGradient3)" text-rendering="geometricPrecision" shape-rendering="geometricPrecision" transform="matrix(1,0,0,1,-353,-267)" stroke="url(#linearGradient3)">
      <path d="M1145.1185 625.7155 C1147.1434 614.0393 1210.5916 614.0393 1212.6165 625.7155 L1212.6165 660.7441 C1210.5916 672.4203 1147.1434 672.4203 1145.1185 660.7441 Z" stroke="none" clip-path="url(#clipPath2)"/>
    </g>
    <g text-rendering="geometricPrecision" stroke-miterlimit="1.45" shape-rendering="geometricPrecision" transform="matrix(1,0,0,1,-353,-267)" stroke-linecap="butt">
      <path fill="none" d="M1145.1185 625.7155 C1147.1434 614.0393 1210.5916 614.0393 1212.6165 625.7155 L1212.6165 660.7441 C1210.5916 672.4203 1147.1434 672.4203 1145.1185 660.7441 Z" clip-path="url(#clipPath2)"/>
      <path fill="none" d="M1212.6165 625.7155 C1210.5916 637.3917 1147.1434 637.3917 1145.1185 625.7155" clip-path="url(#clipPath2)"/>
      <text x="1162.1506" xml:space="preserve" y="647.3842" clip-path="url(#clipPath2)" font-family="sans-serif" stroke="none">CKAN</text>
    </g>
    <g fill="rgb(153,204,0)" text-rendering="geometricPrecision" shape-rendering="geometricPrecision" transform="matrix(1,0,0,1,-353,-267)" stroke="rgb(153,204,0)">
      <rect x="586.0274" width="101" height="30" y="347.8789" clip-path="url(#clipPath2)" stroke="none"/>
    </g>
    <g text-rendering="geometricPrecision" stroke-miterlimit="1.45" shape-rendering="geometricPrecision" transform="matrix(1,0,0,1,-353,-267)" stroke-linecap="butt">
      <rect fill="none" x="586.0274" width="101" height="30" y="347.8789" clip-path="url(#clipPath2)"/>
      <text x="608.1152" xml:space="preserve" y="367.0332" clip-path="url(#clipPath2)" font-family="sans-serif" stroke="none">Metadata</text>
    </g>
    <g fill="url(#linearGradient4)" text-rendering="geometricPrecision" shape-rendering="geometricPrecision" transform="matrix(1,0,0,1,-353,-267)" stroke="url(#linearGradient4)">
      <path d="M537.1757 620.4448 L706.1757 620.4448 L706.1757 660.3186 Q663.9257 648.9261 621.6757 660.3186 Q579.4257 671.7111 537.1757 660.3186 Z" stroke="none" clip-path="url(#clipPath2)"/>
    </g>
    <g text-rendering="geometricPrecision" stroke-miterlimit="1.45" shape-rendering="geometricPrecision" transform="matrix(1,0,0,1,-353,-267)" stroke-linecap="butt">
      <path fill="none" d="M537.1757 620.4448 L706.1757 620.4448 L706.1757 660.3186 Q663.9257 648.9261 621.6757 660.3186 Q579.4257 671.7111 537.1757 660.3186 Z" clip-path="url(#clipPath2)"/>
      <text x="544.5693" xml:space="preserve" y="647.3842" clip-path="url(#clipPath2)" font-family="sans-serif" stroke="none">Non RDF convertible data</text>
    </g>
    <g fill="url(#linearGradient5)" text-rendering="geometricPrecision" shape-rendering="geometricPrecision" transform="matrix(1,0,0,1,-353,-267)" stroke="url(#linearGradient5)">
      <path d="M529.3651 498.6619 L706.1757 498.6619 L706.1757 533.6619 Q661.973 523.6619 617.7704 533.6619 Q573.5677 543.6619 529.3651 533.6619 Z" stroke="none" clip-path="url(#clipPath2)"/>
    </g>
    <g text-rendering="geometricPrecision" stroke-miterlimit="1.45" shape-rendering="geometricPrecision" transform="matrix(1,0,0,1,-353,-267)" stroke-linecap="butt">
      <path fill="none" d="M529.3651 498.6619 L706.1757 498.6619 L706.1757 533.6619 Q661.973 523.6619 617.7704 533.6619 Q573.5677 543.6619 529.3651 533.6619 Z" clip-path="url(#clipPath2)"/>
      <text x="554.5331" xml:space="preserve" y="522.8162" clip-path="url(#clipPath2)" font-family="sans-serif" stroke="none">RDF convertible data</text>
    </g>
    <g fill="rgb(153,204,0)" text-rendering="geometricPrecision" shape-rendering="geometricPrecision" transform="matrix(1,0,0,1,-353,-267)" stroke="rgb(153,204,0)">
      <rect x="593.1757" width="101" height="30" y="602.8087" clip-path="url(#clipPath2)" stroke="none"/>
    </g>
    <g text-rendering="geometricPrecision" stroke-miterlimit="1.45" shape-rendering="geometricPrecision" transform="matrix(1,0,0,1,-353,-267)" stroke-linecap="butt">
      <rect fill="none" x="593.1757" width="101" height="30" y="602.8087" clip-path="url(#clipPath2)"/>
      <text x="615.2636" xml:space="preserve" y="621.963" clip-path="url(#clipPath2)" font-family="sans-serif" stroke="none">Metadata</text>
    </g>
    <g fill="rgb(153,204,0)" text-rendering="geometricPrecision" shape-rendering="geometricPrecision" transform="matrix(1,0,0,1,-353,-267)" stroke="rgb(153,204,0)">
      <rect x="581.1757" width="101" height="30" y="480.6619" clip-path="url(#clipPath2)" stroke="none"/>
    </g>
    <g text-rendering="geometricPrecision" stroke-miterlimit="1.45" shape-rendering="geometricPrecision" transform="matrix(1,0,0,1,-353,-267)" stroke-linecap="butt">
      <rect fill="none" x="581.1757" width="101" height="30" y="480.6619" clip-path="url(#clipPath2)"/>
      <text x="603.2636" xml:space="preserve" y="499.8162" clip-path="url(#clipPath2)" font-family="sans-serif" stroke="none">Metadata</text>
    </g>
    <g fill="rgb(255,204,0)" text-rendering="geometricPrecision" shape-rendering="geometricPrecision" transform="matrix(1,0,0,1,-353,-267)" stroke="rgb(255,204,0)">
      <rect x="1021.5617" y="458.0691" clip-path="url(#clipPath2)" width="58.5001" rx="4" ry="4" height="30" stroke="none"/>
    </g>
    <g text-rendering="geometricPrecision" stroke-miterlimit="1.45" shape-rendering="geometricPrecision" transform="matrix(1,0,0,1,-353,-267)" stroke-linecap="butt">
      <rect x="1021.5617" y="458.0691" clip-path="url(#clipPath2)" fill="none" width="58.5001" rx="4" ry="4" height="30"/>
      <text x="1029.2462" xml:space="preserve" y="477.2234" clip-path="url(#clipPath2)" font-family="sans-serif" stroke="none">Linking</text>
    </g>
    <g fill="rgb(255,204,0)" text-rendering="geometricPrecision" shape-rendering="geometricPrecision" transform="matrix(1,0,0,1,-353,-267)" stroke="rgb(255,204,0)">
      <rect x="1021.5617" y="535.2876" clip-path="url(#clipPath2)" width="101" rx="4" ry="4" height="30" stroke="none"/>
    </g>
    <g text-rendering="geometricPrecision" stroke-miterlimit="1.45" shape-rendering="geometricPrecision" transform="matrix(1,0,0,1,-353,-267)" stroke-linecap="butt">
      <rect x="1021.5617" y="535.2876" clip-path="url(#clipPath2)" fill="none" width="101" rx="4" ry="4" height="30"/>
      <text x="1027.7853" xml:space="preserve" y="554.4419" clip-path="url(#clipPath2)" font-family="sans-serif" stroke="none">Quality control</text>
    </g>
    <g fill="rgb(255,204,0)" text-rendering="geometricPrecision" shape-rendering="geometricPrecision" transform="matrix(1,0,0,1,-353,-267)" stroke="rgb(255,204,0)">
      <rect x="1021.5617" y="573.8968" clip-path="url(#clipPath2)" width="67.498" rx="4" ry="4" height="30" stroke="none"/>
    </g>
    <g text-rendering="geometricPrecision" stroke-miterlimit="1.45" shape-rendering="geometricPrecision" transform="matrix(1,0,0,1,-353,-267)" stroke-linecap="butt">
      <rect x="1021.5617" y="573.8968" clip-path="url(#clipPath2)" fill="none" width="67.498" rx="4" ry="4" height="30"/>
      <text x="1026.8986" xml:space="preserve" y="593.0511" clip-path="url(#clipPath2)" font-family="sans-serif" stroke="none">Metadata</text>
      <text x="1234.2649" font-size="9px" y="292.6519" clip-path="url(#clipPath2)" font-family="sans-serif" stroke="none" xml:space="preserve">UM server</text>
    </g>
    <g fill="rgb(255,204,0)" text-rendering="geometricPrecision" shape-rendering="geometricPrecision" transform="matrix(1,0,0,1,-353,-267)" stroke="rgb(255,204,0)">
      <rect x="1021.5617" y="496.6783" clip-path="url(#clipPath2)" width="112" rx="4" ry="4" height="30" stroke="none"/>
    </g>
    <g text-rendering="geometricPrecision" stroke-miterlimit="1.45" shape-rendering="geometricPrecision" transform="matrix(1,0,0,1,-353,-267)" stroke-linecap="butt">
      <rect x="1021.5617" y="496.6783" clip-path="url(#clipPath2)" fill="none" width="112" rx="4" ry="4" height="30"/>
      <text x="1024.3468" xml:space="preserve" y="515.8326" clip-path="url(#clipPath2)" font-family="sans-serif" stroke="none">ConversionToRDF</text>
      <text x="475.735" font-size="9px" y="299.6881" clip-path="url(#clipPath2)" font-family="sans-serif" stroke="none" xml:space="preserve">Shared project storage</text>
      <path fill="none" d="M1178.8674 608.9709 L1178.8674 401.04" clip-path="url(#clipPath2)"/>
      <path d="M1178.8674 616.9709 L1183.8674 604.9709 L1178.8674 607.9709 L1173.8674 604.9709 Z" clip-path="url(#clipPath2)" stroke="none"/>
      <path d="M1178.8674 393.04 L1173.8674 405.04 L1178.8674 402.04 L1183.8674 405.04 Z" clip-path="url(#clipPath2)" stroke="none"/>
      <text x="1192.2883" xml:space="preserve" y="509.4554" clip-path="url(#clipPath2)" font-family="sans-serif" stroke="none">DCAT</text>
      <path fill="none" d="M687.0273 362.7318 L1126.3485 361.4525" clip-path="url(#clipPath2)"/>
      <path d="M1134.3485 361.4292 L1122.334 356.4641 L1125.3485 361.4554 L1122.3632 366.4641 Z" clip-path="url(#clipPath2)" stroke="none"/>
      <path fill="none" d="M706.1916 643.2299 L1137.142 643.2299" clip-path="url(#clipPath2)"/>
      <path d="M1145.142 643.2299 L1133.142 638.2299 L1136.142 643.2299 L1133.142 648.2299 Z" clip-path="url(#clipPath2)" stroke="none"/>
      <path fill="none" d="M706.1622 518.6522 L1126.7589 378.6453" clip-path="url(#clipPath2)"/>
      <path d="M1134.3494 376.1185 L1121.3844 375.1646 L1125.8101 378.9611 L1124.5428 384.6527 Z" clip-path="url(#clipPath2)" stroke="none"/>
      <path fill="none" d="M694.1757 617.8087 L1128.2205 388.103" clip-path="url(#clipPath2)"/>
      <path d="M1135.2914 384.361 L1122.3463 385.5547 L1127.3367 388.5707 L1127.0238 394.3933 Z" clip-path="url(#clipPath2)" stroke="none"/>
      <path fill="none" d="M682.1757 483.2616 L1126.6252 374.1276" clip-path="url(#clipPath2)"/>
      <path d="M1134.3944 372.2198 L1121.5482 370.2257 L1125.6541 374.366 L1123.933 379.9372 Z" clip-path="url(#clipPath2)" stroke="none"/>
    </g>
  </g>
</svg>
