<?xml version="1.0" encoding="UTF-8"?><svg xmlns="http://www.w3.org/2000/svg" xmlns:xlink="http://www.w3.org/1999/xlink" fill-opacity="1" color-rendering="auto" color-interpolation="auto" text-rendering="auto" stroke="black" stroke-linecap="square" width="650" stroke-miterlimit="10" shape-rendering="auto" stroke-opacity="1" fill="black" stroke-dasharray="none" font-weight="normal" stroke-width="1" height="260" font-family="'Dialog'" font-style="normal" stroke-linejoin="miter" font-size="12px" stroke-dashoffset="0" image-rendering="auto">
  <!--Generated by ySVG 2.5-->
  <defs id="genericDefs"/>
  <g>
    <defs id="defs1">
      <clipPath clipPathUnits="userSpaceOnUse" id="clipPath1">
        <path d="M0 0 L650 0 L650 260 L0 260 L0 0 Z"/>
      </clipPath>
      <clipPath clipPathUnits="userSpaceOnUse" id="clipPath2">
        <path d="M176 445 L826 445 L826 705 L176 705 L176 445 Z"/>
      </clipPath>
    </defs>
    <g fill="white" text-rendering="geometricPrecision" shape-rendering="geometricPrecision" transform="translate(-176,-445)" stroke="white">
      <rect x="176" width="650" height="260" y="445" clip-path="url(#clipPath2)" stroke="none"/>
    </g>
    <g fill="rgb(255,204,0)" text-rendering="geometricPrecision" shape-rendering="geometricPrecision" transform="matrix(1,0,0,1,-176,-445)" stroke="rgb(255,204,0)">
      <rect x="191" y="462" clip-path="url(#clipPath2)" width="114" rx="4" ry="4" height="30" stroke="none"/>
    </g>
    <g text-rendering="geometricPrecision" stroke-miterlimit="1.45" shape-rendering="geometricPrecision" transform="matrix(1,0,0,1,-176,-445)" stroke-linecap="butt">
      <rect x="191" y="462" clip-path="url(#clipPath2)" fill="none" width="114" rx="4" ry="4" height="30"/>
      <text x="203.8057" xml:space="preserve" y="481.1543" clip-path="url(#clipPath2)" font-family="sans-serif" stroke="none">Principios FAIR</text>
      <rect x="444.1651" y="462" clip-path="url(#clipPath2)" fill="none" width="366" stroke-dasharray="6,2" rx="4" ry="4" height="30"/>
      <text x="455.6056" xml:space="preserve" y="481.1543" clip-path="url(#clipPath2)" font-family="sans-serif" stroke="none">Tecnología 2020: Schema, JSON-LD, Datos Enlazados, ....</text>
      <rect x="444.1651" y="560.582" clip-path="url(#clipPath2)" fill="none" width="149" stroke-dasharray="6,2" rx="4" ry="4" height="30"/>
      <text x="455.3868" xml:space="preserve" y="579.7363" clip-path="url(#clipPath2)" font-family="sans-serif" stroke="none">Tecnología 2030: ???</text>
      <rect x="444.1651" y="659.164" clip-path="url(#clipPath2)" fill="none" width="149" stroke-dasharray="6,2" rx="4" ry="4" height="30"/>
      <text x="455.3868" xml:space="preserve" y="678.3183" clip-path="url(#clipPath2)" font-family="sans-serif" stroke="none">Tecnología 2040: ???</text>
    </g>
    <g fill="rgb(255,204,0)" text-rendering="geometricPrecision" shape-rendering="geometricPrecision" transform="matrix(1,0,0,1,-176,-445)" stroke="rgb(255,204,0)">
      <rect x="191" y="560.582" clip-path="url(#clipPath2)" width="114" rx="4" ry="4" height="30" stroke="none"/>
    </g>
    <g text-rendering="geometricPrecision" stroke-miterlimit="1.45" shape-rendering="geometricPrecision" transform="matrix(1,0,0,1,-176,-445)" stroke-linecap="butt">
      <rect x="191" y="560.582" clip-path="url(#clipPath2)" fill="none" width="114" rx="4" ry="4" height="30"/>
      <text x="203.8057" xml:space="preserve" y="579.7363" clip-path="url(#clipPath2)" font-family="sans-serif" stroke="none">Principios FAIR</text>
    </g>
    <g fill="rgb(255,204,0)" text-rendering="geometricPrecision" shape-rendering="geometricPrecision" transform="matrix(1,0,0,1,-176,-445)" stroke="rgb(255,204,0)">
      <rect x="191" y="659.164" clip-path="url(#clipPath2)" width="114" rx="4" ry="4" height="30" stroke="none"/>
    </g>
    <g text-rendering="geometricPrecision" stroke-miterlimit="1.45" shape-rendering="geometricPrecision" transform="matrix(1,0,0,1,-176,-445)" stroke-linecap="butt">
      <rect x="191" y="659.164" clip-path="url(#clipPath2)" fill="none" width="114" rx="4" ry="4" height="30"/>
      <text x="203.8057" xml:space="preserve" y="678.3183" clip-path="url(#clipPath2)" font-family="sans-serif" stroke="none">Principios FAIR</text>
      <path fill="none" d="M304.9766 477 L436.1642 477" clip-path="url(#clipPath2)"/>
      <path d="M444.1642 477 L432.1642 472 L435.1642 477 L432.1642 482 Z" clip-path="url(#clipPath2)" stroke="none"/>
      <text x="334.5555" font-size="8px" y="469.4611" clip-path="url(#clipPath2)" font-family="sans-serif" stroke="none" xml:space="preserve">Implementación</text>
      <path fill="none" stroke-dasharray="0,4" d="M248 491.9702 L248 560.5988" stroke-dashoffset="2" clip-path="url(#clipPath2)" stroke-linecap="round"/>
      <path fill="none" d="M305.022 575.582 L436.1573 575.582" clip-path="url(#clipPath2)"/>
      <path d="M444.1573 575.582 L432.1573 570.582 L435.1573 575.582 L432.1573 580.582 Z" clip-path="url(#clipPath2)" stroke="none"/>
      <text x="335.295" font-size="8px" y="568.5565" clip-path="url(#clipPath2)" font-family="sans-serif" stroke="none" xml:space="preserve">Implementación</text>
      <path fill="none" stroke-dasharray="0,4" d="M248 590.5522 L248 659.1808" stroke-dashoffset="2" clip-path="url(#clipPath2)" stroke-linecap="round"/>
      <path fill="none" d="M305.022 674.164 L436.1573 674.164" clip-path="url(#clipPath2)"/>
      <path d="M444.1573 674.164 L432.1573 669.164 L435.1573 674.164 L432.1573 679.164 Z" clip-path="url(#clipPath2)" stroke="none"/>
      <text x="335.295" font-size="8px" y="666.9123" clip-path="url(#clipPath2)" font-family="sans-serif" stroke="none" xml:space="preserve">Implementación</text>
    </g>
  </g>
</svg>
